<?xml version="1.0" encoding="utf-8"?>
<!-- Generator: Adobe Illustrator 16.0.0, SVG Export Plug-In . SVG Version: 6.00 Build 0)  -->
<!DOCTYPE svg PUBLIC "-//W3C//DTD SVG 1.1//EN" "http://www.w3.org/Graphics/SVG/1.1/DTD/svg11.dtd">
<svg version="1.1" id="Layer_1" xmlns="http://www.w3.org/2000/svg" xmlns:xlink="http://www.w3.org/1999/xlink" x="0px" y="0px"
	 width="653px" height="200px" viewBox="0 0 653 200" enable-background="new 0 0 653 200" xml:space="preserve">
<rect x="23" y="15" fill="#FFFFFF" width="607" height="171"/>
<path fill="#5690D6" d="M625,177.371V181h-3.021c-2.485,0-4.5,1.952-4.5,4.438c0,0.214,0.034,0.562,0.063,0.562H630v-0.702v-12.427
	C627,172.871,625,174.886,625,177.371z"/>
<path fill="#5690D6" d="M448.487,181h-16.265c-2.485,0-4.5,1.952-4.5,4.438c0,0.214,0.034,0.562,0.062,0.562h25.139
	c0.029,0,0.063-0.349,0.063-0.562C452.987,182.952,450.973,181,448.487,181z"/>
<path fill="#5690D6" d="M524.39,181h-16.265c-2.485,0-4.5,1.952-4.5,4.438c0,0.214,0.034,0.562,0.062,0.562h25.139
	c0.029,0,0.063-0.349,0.063-0.562C528.89,182.952,526.875,181,524.39,181z"/>
<path fill="#5690D6" d="M410.536,181h-16.266c-2.485,0-4.5,1.952-4.5,4.438c0,0.214,0.034,0.562,0.063,0.562h25.139
	c0.029,0,0.063-0.349,0.063-0.562C415.036,182.952,413.021,181,410.536,181z"/>
<path fill="#5690D6" d="M486.438,181h-16.265c-2.485,0-4.5,1.952-4.5,4.438c0,0.214,0.034,0.562,0.062,0.562h25.139
	c0.029,0,0.063-0.349,0.063-0.562C490.938,182.952,488.924,181,486.438,181z"/>
<path fill="#5690D6" d="M144.875,181H128.61c-2.485,0-4.5,1.952-4.5,4.438c0,0.214,0.034,0.562,0.063,0.562h25.139
	c0.029,0,0.063-0.349,0.063-0.562C149.375,182.952,147.361,181,144.875,181z"/>
<path fill="#5690D6" d="M106.924,181H90.659c-2.485,0-4.5,1.952-4.5,4.438c0,0.214,0.034,0.562,0.063,0.562h25.139
	c0.029,0,0.063-0.349,0.063-0.562C111.424,182.952,109.409,181,106.924,181z"/>
<path fill="#5690D6" d="M68.973,181H52.708c-2.485,0-4.5,1.952-4.5,4.438c0,0.214,0.034,0.562,0.063,0.562H73.41
	c0.029,0,0.063-0.349,0.063-0.562C73.473,182.952,71.458,181,68.973,181z"/>
<path fill="#5690D6" d="M182.827,181h-16.265c-2.485,0-4.5,1.952-4.5,4.438c0,0.214,0.034,0.562,0.063,0.562h25.139
	c0.029,0,0.063-0.349,0.063-0.562C187.327,182.952,185.312,181,182.827,181z"/>
<path fill="#5690D6" d="M181.233,84.319l0.081-0.084c-0.058-2.007-0.124-4.014-0.189-6.021c-0.159-4.853-0.324-9.872-0.37-14.797
	c-0.024-3.042-0.942-5.142-3.069-7.021c-3.3-2.922-6.554-6.035-9.702-9.045c-1.849-1.769-3.698-3.414-5.564-5.154
	c-0.855-0.802-2.141-1.197-3.358-1.197c-0.001,0-0.002,0-0.003,0c-5.379,0-9.87,0.179-14.13,0.443
	c-2.038,0.126-3.811,0.435-5.271,1.04c-4.049,1.683-8.143,3.407-12.101,5.105c-3.388,1.453-6.776,2.891-10.186,4.321
	c-0.204,0.087-0.833,0.141-1.19,0.022c-3.412-1.125-6.871-2.325-10.216-3.483c-1.715-0.593-3.431-1.189-5.149-1.776
	c-8.144-2.788-14.996-5.121-21.958-7.438c-0.475-0.16-0.949-0.193-1.264-0.193c-0.554,0-1.591,0.104-2.314,0.794
	c-6.717,6.337-13.457,12.823-19.165,18.334c-0.649,0.628-1.091,1.575-1.153,2.468c-0.349,4.915-0.663,9.831-0.976,14.749
	l-0.102,1.601c-0.064,1.021-0.134,2.043-0.204,3.064c-0.181,2.648-0.367,5.386-0.463,8.094c-0.012,0.345-0.035,0.689-0.057,1.034
	c-0.12,1.867-0.256,3.983,1.062,6.145c4.995,8.2,10.027,16.566,14.893,24.657c2.31,3.84,4.619,7.68,6.935,11.52
	c0.466,0.771,1.044,1.457,1.672,1.987c1.96,1.652,3.945,3.254,5.977,4.887l8.751,7.014c7.207,5.774,14.414,11.549,21.594,17.345
	c0.604,0.49,1.435,1.054,2.507,1.054c1.061,0,1.877-0.552,2.397-0.965c6.047-4.792,12.109-9.564,18.17-14.337
	c5.473-4.309,10.945-8.617,16.408-12.94l0.521-0.41c1.426-1.119,3.043-2.387,4.084-4.065c7.284-11.709,14.545-23.692,21.567-35.28
	l0.619-1.021c0.721-1.207,0.868-2.554,0.891-3.248c0.059-1.738,0.047-3.489,0.036-5.183
	C181.237,85.665,181.233,84.992,181.233,84.319z M162.535,62.333c0.574,6.547,1.143,13.085,1.71,19.625
	c0.127,1.482,0.25,2.965,0.374,4.449c0.245,2.94,0.49,5.882,0.76,8.812c0.002,0.023,0.003,0.044,0.004,0.063
	c-0.028,0.008-0.061,0.016-0.097,0.024c-4.662,1.057-9.195,2.161-13.039,3.109c-4.216-7.547-8.436-15.089-12.681-22.622l0.578-0.568
	c4.453-4.378,8.901-8.752,13.335-13.142c2.779-2.749,5.544-5.507,8.306-8.273C162.037,56.65,162.288,59.492,162.535,62.333z
	 M158.979,44.879c0.139,0.254,0.277,0.512,0.412,0.771c-0.898-0.218-1.799-0.437-2.702-0.657
	C157.452,44.954,158.214,44.916,158.979,44.879z M141.925,46.108c0.178-0.078,0.4-0.108,0.594-0.108c0.002,0,0.004,0,0.006,0
	c3.073,1,6.14,1.481,9.206,2.251l-20.057,2.375C135.088,49.101,138.503,47.603,141.925,46.108z M117.621,57.378
	c0.166-0.2,0.645-0.471,1.013-0.52c8.786-1.162,17.73-2.289,26.38-3.38l3.188-0.402c3.019-0.38,6.038-0.751,8.907-1.103
	c-1.004,1.123-2.036,2.254-3.108,3.347c-4.082,4.139-8.285,8.297-12.35,12.318l-2.704,2.676c-1.041,1.035-2.022,1.95-2.989,2.789
	c-0.091,0.078-0.218,0.132-0.25,0.139c-3.729,0.319-7.454,0.607-11.182,0.895l-1.812,0.14c-6.42,0.498-12.837,0.99-19.26,1.478
	c-0.259,0.02-0.518,0.039-0.779,0.057c0.719-0.902,1.421-1.78,2.129-2.653l2.474-3.065
	C110.651,65.911,114.141,61.586,117.621,57.378z M112.765,56.138L97.913,74.56l-2.594-3.974c-4.676-7.166-9.313-14.271-13.95-21.369
	L112.765,56.138z M112.021,116.407L70.906,96.759l25.795-15.146C101.861,93.338,106.945,104.881,112.021,116.407z M79.079,43.805
	l3.223,1.136c-1.094-0.234-2.188-0.466-3.282-0.697C79.039,44.099,79.059,43.953,79.079,43.805z M63.031,58.753l3.9-2.871
	c3.078-2.264,6.154-4.527,9.212-6.809c5.027,7.829,10.072,15.644,15.118,23.461l0.421,0.653L61.662,59.774
	C62.126,59.426,62.578,59.088,63.031,58.753z M92.834,78.655c-7.033,4.146-13.952,8.228-20.933,12.346l-4.259,2.513l-7.151-29.435
	L92.834,78.655z M58.17,91.456c-0.25-0.098-0.521-0.203-0.721-0.289c0.005-0.251,0.027-0.593,0.042-0.833
	c0.194-3.305,0.431-6.608,0.667-9.912l0.101-1.42c0.096-1.374,0.193-2.74,0.294-4.104l4.421,18.438
	c-0.991-0.384-1.98-0.773-2.969-1.161L58.17,91.456z M79.979,129.323c-0.074-0.067-0.224-0.233-0.4-0.526
	c-3.514-5.805-7.014-11.618-10.513-17.431l-5.546-9.208c-0.977-1.622-1.963-3.238-2.948-4.853c-0.057-0.093-0.113-0.186-0.17-0.278
	c1.384,0.557,2.731,1.107,4.068,1.674c0.047,0.067,0.124,0.192,0.245,0.423c4.503,8.539,8.991,17.091,13.479,25.644l2.477,4.72
	C80.435,129.438,80.204,129.385,79.979,129.323z M77.559,113.887l-6.264-11.964l39.36,18.845c-0.668,0.246-1.323,0.485-1.978,0.719
	l-6.174,2.197c-5.572,1.981-11.144,3.962-16.701,5.973C83.072,124.389,80.315,119.137,77.559,113.887z M114.321,156.537
	l-25.415-23.305c0.602-0.221,1.181-0.432,1.761-0.637l2.167-0.763c7.163-2.521,14.323-5.04,21.499-7.551
	C114.333,135.031,114.33,145.782,114.321,156.537z M117.6,117.843l-16.495-37.44c0.942-0.085,1.839-0.166,2.737-0.235
	c3.733-0.293,7.466-0.582,11.2-0.872l10.732-0.837c3.248-0.257,6.602-0.523,9.834-0.722c0.014,0.013,0.024,0.023,0.029,0.028
	c2.748,4.787,5.462,9.585,8.177,14.386l2.501,4.421c0.213,0.375,0.421,0.751,0.63,1.128c0.435,0.784,0.882,1.592,1.371,2.392
	c-7.337,4.208-14.656,8.451-21.975,12.694l-7.02,4.063C118.756,117.176,118.183,117.507,117.6,117.843z M119,156.413v-32.125
	c8,2.938,17.139,5.874,25.878,8.868L119,156.413z M147.998,129.638c-6.903-2.438-13.818-4.841-20.735-7.245l-5.354-1.861
	l5.713-3.374c7.509-4.436,15.274-9.022,22.937-13.477c1.189-0.686,2.667-1.088,4.078-1.441c2.722-0.678,5.513-1.302,8.212-1.906
	c0.245-0.055,0.49-0.11,0.735-0.165l-4.225,7.979c-3.778,7.133-7.557,14.266-11.321,21.414
	C148.024,129.589,148.01,129.614,147.998,129.638z M173.193,98.101l-3.586,5.856c-4.952,8.085-9.905,16.171-14.823,24.279
	c-0.525,0.863-0.863,1.029-1.423,1.076c-0.062,0.005-0.125,0.011-0.188,0.018l2.403-4.558c4.526-8.584,9.053-17.17,13.594-25.747
	c0.092-0.173,0.171-0.284,0.218-0.342c1.496-0.602,3.018-1.191,4.527-1.768C173.676,97.312,173.435,97.707,173.193,98.101z
	 M170.091,93.713l-0.431,0.165l-3.545-40.254c0.825,0.599,1.648,1.197,2.469,1.798c0.88,0.648,1.758,1.3,2.635,1.953
	c1.561,1.16,3.121,2.32,4.697,3.458c0.353,0.254,0.463,0.418,0.467,0.951c0.056,6.993,0.168,14.1,0.277,20.972l0.011,0.684
	c0.017,1.036,0.047,2.073,0.077,3.11c0.044,1.537,0.088,3.074,0.096,4.535C174.667,91.971,172.44,92.819,170.091,93.713z"/>
<path fill="#5690D6" d="M372.584,181h-16.265c-2.485,0-4.5,1.952-4.5,4.438c0,0.214,0.034,0.562,0.063,0.562h25.139
	c0.028,0,0.062-0.349,0.062-0.562C377.084,182.952,375.069,181,372.584,181z"/>
<path fill="#5690D6" d="M220.778,181h-16.265c-2.485,0-4.5,1.952-4.5,4.438c0,0.214,0.034,0.562,0.063,0.562h25.139
	c0.029,0,0.063-0.349,0.063-0.562C225.278,182.952,223.264,181,220.778,181z"/>
<path fill="#5690D6" d="M296.681,181h-16.265c-2.485,0-4.5,1.952-4.5,4.438c0,0.214,0.034,0.562,0.063,0.562h25.139
	c0.029,0,0.063-0.349,0.063-0.562C301.181,182.952,299.167,181,296.681,181z"/>
<path fill="#5690D6" d="M258.73,181h-16.265c-2.485,0-4.5,1.952-4.5,4.438c0,0.214,0.034,0.562,0.063,0.562h25.139
	c0.029,0,0.063-0.349,0.063-0.562C263.23,182.952,261.215,181,258.73,181z"/>
<path fill="#5690D6" d="M334.633,181h-16.265c-2.485,0-4.5,1.952-4.5,4.438c0,0.214,0.034,0.562,0.063,0.562h25.14
	c0.028,0,0.062-0.349,0.062-0.562C339.133,182.952,337.118,181,334.633,181z"/>
<path fill="#5690D6" d="M600.293,181h-16.265c-2.485,0-4.5,1.952-4.5,4.438c0,0.214,0.034,0.562,0.063,0.562h25.139
	c0.028,0,0.062-0.349,0.062-0.562C604.793,182.952,602.778,181,600.293,181z"/>
<path fill="#5690D6" d="M562.342,181h-16.266c-2.485,0-4.5,1.952-4.5,4.438c0,0.214,0.034,0.562,0.062,0.562h25.141
	c0.028,0,0.062-0.349,0.062-0.562C566.842,182.952,564.827,181,562.342,181z"/>
<path fill="#5690D6" d="M31.021,181H28v-3.629c0-2.485-2.202-4.5-4.688-4.5c-0.043,0-0.312,0.012-0.312,0.013V186h12.458
	c0.029,0,0.063-0.349,0.063-0.562C35.521,182.952,33.506,181,31.021,181z"/>
<path fill="#5690D6" d="M28,158.028v-14.507c0-2.485-2.202-4.5-4.688-4.5c-0.043,0-0.312,0.012-0.312,0.013v23.481
	c0,0.001,0.27,0.013,0.312,0.013C25.798,162.528,28,160.514,28,158.028z"/>
<path fill="#5690D6" d="M28,124.179v-14.507c0-2.485-2.202-4.5-4.688-4.5c-0.043,0-0.312,0.012-0.312,0.013v23.481
	c0,0.001,0.27,0.013,0.312,0.013C25.798,128.679,28,126.664,28,124.179z"/>
<path fill="#5690D6" d="M28,56.479V41.972c0-2.485-2.202-4.5-4.688-4.5c-0.043,0-0.312,0.011-0.312,0.013v23.481
	c0,0.001,0.27,0.013,0.312,0.013C25.798,60.979,28,58.964,28,56.479z"/>
<path fill="#5690D6" d="M28,90.329V75.822c0-2.485-2.202-4.5-4.688-4.5c-0.043,0-0.312,0.011-0.312,0.013v23.482
	c0,0.001,0.27,0.013,0.312,0.013C25.798,94.829,28,92.814,28,90.329z"/>
<path fill="#5690D6" d="M23,15v12.117c0,0.001,0.27,0.013,0.312,0.013c2.485,0,4.688-2.015,4.688-4.5V19h3.021c2.485,0,4.5-2,4.5-4
	H23.094H23z"/>
<path fill="#5690D6" d="M470.174,19h16.265c2.485,0,4.5-2,4.5-4h-25.265C465.674,17,467.688,19,470.174,19z"/>
<path fill="#5690D6" d="M318.368,19h16.265c2.485,0,4.5-2,4.5-4h-25.265C313.868,17,315.882,19,318.368,19z"/>
<path fill="#5690D6" d="M242.465,19h16.265c2.485,0,4.5-2,4.5-4h-25.265C237.965,17,239.979,19,242.465,19z"/>
<path fill="#5690D6" d="M280.416,19h16.265c2.485,0,4.5-2,4.5-4h-25.265C275.916,17,277.931,19,280.416,19z"/>
<path fill="#5690D6" d="M508.125,19h16.265c2.485,0,4.5-2,4.5-4h-25.265C503.625,17,505.64,19,508.125,19z"/>
<path fill="#5690D6" d="M204.513,19h16.265c2.485,0,4.5-2,4.5-4h-25.265C200.013,17,202.028,19,204.513,19z"/>
<path fill="#5690D6" d="M356.319,19h16.265c2.485,0,4.5-2,4.5-4h-25.265C351.819,17,353.834,19,356.319,19z"/>
<path fill="#5690D6" d="M90.659,19h16.265c2.485,0,4.5-2,4.5-4H86.159C86.159,17,88.174,19,90.659,19z"/>
<path fill="#5690D6" d="M52.708,19h16.265c2.485,0,4.5-2,4.5-4H48.208C48.208,17,50.222,19,52.708,19z"/>
<path fill="#5690D6" d="M432.222,19h16.266c2.485,0,4.5-2,4.5-4h-25.266C427.722,17,429.736,19,432.222,19z"/>
<path fill="#5690D6" d="M394.271,19h16.265c2.485,0,4.5-2,4.5-4h-25.265C389.771,17,391.785,19,394.271,19z"/>
<path fill="#5690D6" d="M546.076,19h16.266c2.485,0,4.5-2,4.5-4h-25.266C541.576,17,543.591,19,546.076,19z"/>
<path fill="#5690D6" d="M166.562,19h16.265c2.485,0,4.5-2,4.5-4h-25.265C162.062,17,164.077,19,166.562,19z"/>
<path fill="#5690D6" d="M128.61,19h16.265c2.485,0,4.5-2,4.5-4H124.11C124.11,17,126.125,19,128.61,19z"/>
<path fill="#5690D6" d="M584.028,19h16.265c2.485,0,4.5-2,4.5-4h-25.265C579.528,17,581.543,19,584.028,19z"/>
<path fill="#5690D6" d="M621.979,19H625v3.629c0,2.485,2,4.5,5,4.5V15h-12.521C617.479,17,619.494,19,621.979,19z"/>
<path fill="#5690D6" d="M625,109.671v14.507c0,2.485,2,4.5,5,4.5v-23.507C627,105.171,625,107.186,625,109.671z"/>
<path fill="#5690D6" d="M625,75.821v14.507c0,2.485,2,4.5,5,4.5V71.321C627,71.321,625,73.336,625,75.821z"/>
<path fill="#5690D6" d="M625,143.521v14.508c0,2.485,2,4.5,5,4.5v-23.508C627,139.021,625,141.035,625,143.521z"/>
<path fill="#5690D6" d="M625,41.972v14.507c0,2.485,2,4.5,5,4.5V37.472C627,37.472,625,39.486,625,41.972z"/>
<path fill="#5690D6" d="M207.571,86.902c0.346,0.264,0.747,0.491,1.202,0.682c0.454,0.192,0.915,0.354,1.381,0.484
	c0.466,0.132,0.831,0.21,1.094,0.233c0.502,0.072,0.897,0.125,1.184,0.162c0.287,0.036,0.538,0.096,0.753,0.179
	c0.215,0.084,0.431,0.221,0.646,0.413c0.215,0.192,0.502,0.466,0.861,0.825c0.741,0.766,1.112,1.663,1.112,2.691
	c0,0.766-0.09,1.531-0.27,2.296c-0.179,0.766-0.269,1.531-0.269,2.296c0,0.263,0.036,0.526,0.108,0.789
	c0.072,0.264,0.149,0.502,0.233,0.718c0.083,0.215,0.162,0.395,0.233,0.538s0.107,0.228,0.107,0.251
	c0,0.096-0.042,0.204-0.125,0.323c-0.084,0.12-0.174,0.257-0.269,0.413c-0.096,0.156-0.186,0.335-0.269,0.538
	c-0.084,0.204-0.125,0.438-0.125,0.699c0,0.192,0.023,0.58,0.072,1.166c0.048,0.587,0.113,1.203,0.197,1.848
	c0.083,0.646,0.173,1.238,0.269,1.776c0.095,0.538,0.179,0.855,0.251,0.951c0.048,0.789,0.102,1.578,0.162,2.367
	c0.06,0.79,0.09,1.579,0.09,2.368c0,1.292-0.09,2.56-0.269,3.803c-0.18,1.244-0.269,2.499-0.269,3.768
	c0,0.646,0.005,1.291,0.018,1.938c0.012,0.646,0.018,1.291,0.018,1.938c0,0.908-0.03,1.817-0.09,2.727
	c-0.06,0.908-0.197,1.817-0.413,2.727c-0.407,0-0.789,0.065-1.148,0.197c-0.359,0.131-0.717,0.269-1.076,0.412
	s-0.724,0.281-1.094,0.413c-0.371,0.131-0.771,0.197-1.202,0.197c-0.191,0-0.455,0.041-0.789,0.125
	c-0.335,0.084-0.664,0.197-0.987,0.341c-0.323,0.144-0.61,0.317-0.861,0.521s-0.377,0.413-0.377,0.628
	c0,0.311,0.173,0.592,0.521,0.843c0.346,0.252,0.753,0.467,1.22,0.646c0.466,0.179,0.933,0.316,1.399,0.412
	c0.466,0.096,0.831,0.144,1.094,0.144c1.028,0,2.063-0.06,3.103-0.18c1.041-0.119,2.086-0.179,3.139-0.179
	c1.005,0,1.991,0.071,2.96,0.215s1.943,0.216,2.924,0.216c0.717,0,1.309-0.168,1.776-0.503c0.466-0.335,0.699-0.896,0.699-1.686
	c0-0.383-0.096-0.706-0.287-0.969c-0.192-0.264-0.431-0.484-0.718-0.664s-0.61-0.312-0.969-0.395
	c-0.359-0.084-0.694-0.149-1.004-0.197c-0.67-0.072-1.22-0.103-1.65-0.09c-0.431,0.012-0.789-0.042-1.076-0.161
	c-0.287-0.12-0.521-0.348-0.7-0.682c-0.179-0.336-0.353-0.886-0.52-1.65c-0.072-0.312-0.18-0.646-0.323-1.005
	s-0.293-0.724-0.448-1.094c-0.156-0.372-0.287-0.725-0.395-1.059c-0.108-0.336-0.162-0.646-0.162-0.933
	c0.119,0.023,0.227,0.041,0.323,0.054c0.095,0.012,0.191,0.018,0.287,0.018c0.144,0,0.257-0.036,0.341-0.107
	c0.083-0.072,0.125-0.228,0.125-0.467c-0.024-0.574-0.03-1.076-0.018-1.507s0.048-0.892,0.108-1.381
	c0.06-0.49,0.162-0.945,0.305-1.363c0.144-0.418,0.329-0.766,0.556-1.041c0.227-0.274,0.532-0.412,0.915-0.412
	c0.431,0,1.052,0.161,1.866,0.484c0.812,0.322,1.656,0.682,2.529,1.076c0.873,0.395,1.704,0.753,2.493,1.076
	c0.79,0.323,1.387,0.484,1.794,0.484c0.215,0,0.377-0.042,0.484-0.126c0.108-0.084,0.209-0.173,0.305-0.269
	c0.095-0.096,0.209-0.186,0.341-0.27c0.131-0.084,0.328-0.125,0.592-0.125c0.454,0,0.902,0.048,1.345,0.144
	c0.442,0.095,0.891,0.144,1.346,0.144c0.358,0,0.777-0.061,1.255-0.18c0.479-0.12,0.951-0.275,1.417-0.467s0.909-0.412,1.327-0.663
	s0.759-0.508,1.022-0.771c0.263-0.263,0.479-0.496,0.646-0.699c0.167-0.203,0.442-0.389,0.825-0.557
	c0.239-0.095,0.4-0.215,0.484-0.358c0.083-0.144,0.137-0.293,0.161-0.449c0.024-0.155,0.054-0.316,0.09-0.483
	c0.036-0.168,0.125-0.335,0.269-0.503c0.239-0.263,0.472-0.46,0.7-0.592c0.227-0.131,0.442-0.27,0.646-0.412
	c0.203-0.144,0.395-0.317,0.574-0.521c0.18-0.203,0.341-0.508,0.484-0.915c0.12-0.406,0.239-0.795,0.359-1.166
	c0.119-0.37,0.334-0.723,0.646-1.059c0.239-0.263,0.418-0.52,0.539-0.771c0.119-0.251,0.203-0.502,0.251-0.753
	c0.048-0.251,0.077-0.515,0.09-0.789c0.012-0.275,0.042-0.58,0.089-0.915c0.144-1.005,0.323-1.997,0.538-2.979
	c0.215-0.98,0.323-1.984,0.323-3.013c0-0.598-0.084-1.148-0.251-1.65c-0.167-0.502-0.347-0.974-0.538-1.417
	c-0.191-0.442-0.371-0.849-0.538-1.22c-0.167-0.371-0.251-0.736-0.251-1.094c0-0.144,0.047-0.281,0.144-0.413
	c0.095-0.131,0.144-0.281,0.144-0.449c0-0.287-0.084-0.508-0.251-0.664c-0.167-0.155-0.347-0.323-0.538-0.502
	c-0.192-0.179-0.445-0.4-0.612-0.664c-0.168-0.263-0.325-0.633-0.325-1.112v-0.682c0-0.239,0.056-0.466,0.02-0.682
	c-0.035-0.215-0.088-0.418-0.232-0.61c-0.502-0.167-0.884-0.406-1.183-0.717c-0.299-0.311-0.571-0.682-0.834-1.112
	c-0.144-0.215-0.414-0.46-0.82-0.735s-0.883-0.556-1.433-0.843c-0.55-0.287-1.146-0.568-1.792-0.843
	c-0.646-0.274-1.267-0.514-1.865-0.717c-0.598-0.203-1.143-0.371-1.632-0.502c-0.491-0.131-0.867-0.197-1.13-0.197
	c-0.526,0-1.304,0.107-2.332,0.323c-1.029,0.215-2.105,0.484-3.229,0.807c-1.125,0.323-2.188,0.658-3.193,1.005
	s-1.758,0.64-2.26,0.879c-0.192,0.096-0.377,0.179-0.556,0.251s-0.365,0.108-0.556,0.108c-0.311,0-0.568-0.155-0.771-0.467
	c-0.203-0.311-0.466-0.651-0.789-1.022c-0.323-0.371-0.76-0.711-1.31-1.022c-0.55-0.311-1.34-0.466-2.368-0.466
	c-0.359,0-0.73,0.042-1.112,0.125c-0.383,0.084-0.706,0.257-0.969,0.521c-0.239-0.239-0.526-0.389-0.861-0.449
	c-0.335-0.059-0.67-0.089-1.005-0.089c-0.311,0-0.73,0.042-1.255,0.125c-0.526,0.084-1.047,0.215-1.561,0.395
	c-0.515,0.179-0.963,0.419-1.345,0.717c-0.383,0.3-0.574,0.652-0.574,1.059C207.051,86.352,207.224,86.639,207.571,86.902z
	 M229.546,85.216c-0.024,0-0.036,0.024-0.036,0.072c0-0.191,0.03-0.413,0.09-0.664c0.06-0.251,0.209-0.377,0.449-0.377
	c0.119,0,0.239,0.06,0.358,0.18s0.18,0.239,0.18,0.358c0,0.24-0.138,0.389-0.413,0.449c-0.275,0.06-0.497,0.089-0.664,0.089
	l0.144-0.071C229.629,85.228,229.593,85.216,229.546,85.216z M220.218,98.652c0.048-0.514,0.12-1.076,0.215-1.687
	c0.095-0.61,0.215-1.237,0.359-1.883s0.311-1.231,0.502-1.758c0.191-0.526,0.418-0.963,0.682-1.31s0.55-0.532,0.861-0.556
	c0.023-0.144,0.095-0.245,0.215-0.305c0.119-0.059,0.239-0.113,0.358-0.161s0.227-0.108,0.323-0.18
	c0.095-0.072,0.144-0.191,0.144-0.358c0.095,0.048,0.227,0.072,0.395,0.072c0.239,0,0.364-0.131,0.376-0.395
	c0.012-0.263,0.126-0.526,0.341-0.789c0.144-0.095,0.305-0.185,0.484-0.269c0.18-0.083,0.347-0.173,0.502-0.269
	c0.155-0.096,0.281-0.209,0.377-0.341c0.095-0.131,0.143-0.489,0.143-0.705c0-0.144-0.024,0.242-0.072-0.758h0.18
	c0.287,0,0.562,0.244,0.825,0.363c0.263,0.12,0.52,0.338,0.771,0.469c0.251,0.132,0.514,0.304,0.789,0.423
	c0.275,0.12,0.58,0.202,0.915,0.202c0.478,0,0.951-0.09,1.417-0.293c0.466-0.203,0.938-0.299,1.417-0.299
	c0.239,0,0.58,0.081,1.022,0.236c0.442,0.156,0.897,0.354,1.363,0.593c0.467,0.239,0.897,0.492,1.292,0.754
	c0.395,0.264,0.651,0.502,0.771,0.718c0.167,0.335,0.341,0.551,0.521,0.646c0.179,0.096,0.346,0.156,0.502,0.18
	c0.155,0.024,0.317,0.054,0.484,0.089c0.167,0.036,0.347,0.162,0.538,0.377c0.12,0.144,0.198,0.305,0.233,0.484
	c0.036,0.179,0.054,0.359,0.054,0.538s0.012,0.359,0.036,0.538c0.023,0.179,0.083,0.341,0.179,0.484
	c0.359,0.574,0.718,1.161,1.076,1.758c0.359,0.598,0.682,1.214,0.969,1.848c0.287,0.634,0.526,1.292,0.718,1.974
	c0.191,0.682,0.287,1.381,0.287,2.099c0,0.263-0.054,0.508-0.162,0.734c-0.108,0.229-0.228,0.461-0.359,0.7
	c-0.132,0.239-0.251,0.491-0.359,0.753c-0.107,0.264-0.161,0.551-0.161,0.861c0,0.312,0.023,0.616,0.072,0.915
	c0.047,0.299,0.072,0.604,0.072,0.915c0,0.431-0.06,0.735-0.18,0.915c-0.12,0.179-0.251,0.322-0.395,0.431
	c-0.144,0.107-0.145,0.215-0.264,0.322c-0.12,0.107-0.049,0.281-0.049,0.521v0.682c0,0.287-0.19,0.484-0.31,0.592
	c-0.12,0.107-0.472,0.281-0.926,0.521c-0.216,0.12-0.392,0.257-0.463,0.412c-0.072,0.156-0.142,0.317-0.178,0.484
	c-0.036,0.168-0.085,0.335-0.133,0.503c-0.048,0.167-0.148,0.322-0.292,0.466c-0.191,0.191-0.427,0.335-0.702,0.431
	s-0.509,0.251-0.7,0.467c-0.24,0.263-0.539,0.532-0.897,0.807c-0.359,0.275-0.735,0.533-1.13,0.771
	c-0.395,0.239-0.796,0.437-1.202,0.592c-0.407,0.156-0.79,0.233-1.148,0.233c-0.383,0-0.76-0.041-1.13-0.126
	c-0.371-0.083-0.748-0.173-1.13-0.269c-0.383-0.096-0.766-0.191-1.148-0.287c-0.383-0.096-0.766-0.144-1.148-0.144
	c-0.981-0.023-1.842-0.209-2.583-0.556c-0.742-0.347-1.417-0.777-2.027-1.292c-0.61-0.514-1.19-1.094-1.74-1.74
	c-0.55-0.646-1.125-1.291-1.722-1.938c0.048-0.669,0.09-1.327,0.125-1.973c0.036-0.646,0.054-1.292,0.054-1.938
	c0-0.861-0.054-1.716-0.161-2.565c-0.108-0.849-0.162-1.704-0.162-2.565C220.146,99.555,220.169,99.167,220.218,98.652z"/>
<path fill="#5690D6" d="M252.83,110.438c0,0.335,0.18,0.843,0.538,1.524c0.359,0.682,0.79,1.37,1.292,2.063
	c0.502,0.693,1.028,1.304,1.579,1.829c0.55,0.526,1.017,0.79,1.399,0.79c0.263,0,0.502-0.06,0.717-0.18
	c0.215-0.119,0.407-0.274,0.574-0.467c-0.024,0.072-0.036,0.156-0.036,0.251c0,0.431,0.233,0.767,0.699,1.005
	c0.467,0.239,1.005,0.413,1.615,0.521s1.213,0.167,1.812,0.179c0.598,0.013,1.041,0.019,1.328,0.019c1.1,0,2.194-0.024,3.283-0.072
	c1.088-0.048,2.17-0.215,3.247-0.502c0.311-0.096,0.651-0.221,1.022-0.377c0.371-0.155,0.735-0.311,1.094-0.466
	c0.358-0.155,0.717-0.293,1.076-0.413c0.359-0.119,0.705-0.179,1.041-0.179c0.406,0,0.747-0.084,1.022-0.252
	c0.274-0.167,0.526-0.346,0.753-0.538c0.227-0.19,0.454-0.37,0.682-0.538c0.227-0.167,0.496-0.251,0.807-0.251
	c0.287,0,0.64,0.168,1.059,0.502c0.418,0.336,0.884,0.7,1.399,1.095c0.514,0.395,1.077,0.753,1.687,1.076s1.261,0.484,1.955,0.484
	c0.813,0,1.62-0.197,2.422-0.592c0.801-0.395,1.561-0.783,2.278-1.166c0.335-0.167,0.58-0.316,0.736-0.448
	c0.155-0.132,0.269-0.275,0.341-0.431s0.125-0.341,0.161-0.557c0.036-0.215,0.102-0.489,0.197-0.825
	c0.12-0.382,0.251-0.753,0.395-1.112c0.144-0.358,0.215-0.74,0.215-1.147c0-0.263-0.06-0.472-0.18-0.628
	c-0.12-0.155-0.275-0.274-0.466-0.358c-0.192-0.084-0.401-0.138-0.628-0.162c-0.228-0.023-0.448-0.036-0.664-0.036
	c-0.479,0-0.874,0.168-1.184,0.503c-0.311,0.335-0.598,0.699-0.861,1.094c-0.264,0.395-0.556,0.754-0.879,1.076
	c-0.323,0.323-0.748,0.484-1.274,0.484c-0.12,0-0.233-0.065-0.341-0.197c-0.107-0.131-0.186-0.484-0.233-1.058
	c0-0.934-0.054-1.872-0.162-2.816c-0.108-0.945-0.233-1.89-0.377-2.835c-0.144-0.944-0.269-1.889-0.376-2.834
	c-0.108-0.944-0.162-1.896-0.162-2.852c0-1.005,0.03-1.991,0.09-2.96c0.06-0.969,0.09-1.955,0.09-2.96
	c0-0.741-0.042-1.548-0.126-2.421s-0.228-1.74-0.43-2.601c-0.204-0.861-0.479-1.68-0.825-2.458c-0.347-0.777-0.784-1.453-1.31-2.027
	c-0.718-0.765-1.537-1.429-2.458-1.991c-0.921-0.562-1.896-1.034-2.924-1.417c-1.028-0.382-2.081-0.664-3.157-0.843
	c-1.077-0.179-2.129-0.269-3.157-0.269l-1.112,0.036c-0.598,0.024-1.178,0.107-1.74,0.251s-1.125,0.311-1.686,0.502
	c-0.562,0.191-1.112,0.4-1.65,0.627c-0.538,0.228-1.094,0.425-1.668,0.592c-0.215,0.072-0.484,0.149-0.807,0.233
	c-0.323,0.084-0.658,0.174-1.004,0.269c-0.347,0.096-0.67,0.192-0.969,0.287c-0.299,0.096-0.533,0.192-0.7,0.287
	c-0.12,0.622-0.317,1.202-0.592,1.74c-0.275,0.538-0.556,1.076-0.843,1.614s-0.544,1.089-0.771,1.65
	c-0.228,0.562-0.341,1.166-0.341,1.812c0,0.598,0.149,1.19,0.449,1.776c0.299,0.586,0.58,1.13,0.843,1.632
	c0.334,0.694,0.765,1.136,1.292,1.327c0.526,0.192,1.148,0.287,1.865,0.287c0.598,0,1.22-0.054,1.866-0.162
	c0.646-0.107,1.238-0.305,1.776-0.592s0.98-0.669,1.328-1.148c0.346-0.478,0.52-1.076,0.52-1.794c0-0.478-0.042-0.951-0.125-1.417
	c-0.084-0.466-0.125-0.938-0.125-1.417c0-0.812,0.215-1.429,0.646-1.848c0.43-0.418,0.956-0.717,1.579-0.896
	c0.622-0.18,1.292-0.287,2.009-0.323c0.718-0.036,1.363-0.102,1.938-0.197c0.072,0,0.155-0.012,0.251-0.036
	c0.095-0.024,0.191-0.036,0.287-0.036c0.765,0,1.566,0.228,2.404,0.682c0.837,0.455,1.602,1.035,2.296,1.74
	c0.694,0.706,1.262,1.483,1.705,2.332c0.442,0.849,0.664,1.656,0.664,2.421c0,0.694-0.156,1.238-0.466,1.633
	c-0.312,0.395-0.718,0.706-1.22,0.933c-0.502,0.228-1.07,0.401-1.704,0.52c-0.634,0.12-1.268,0.233-1.901,0.341
	c-0.634,0.108-1.244,0.251-1.83,0.431c-0.586,0.179-1.071,0.437-1.453,0.771c-0.383,0.335-0.7,0.568-0.951,0.7
	s-0.64,0.197-1.166,0.197c-0.479,0-0.939-0.048-1.381-0.144c-0.443-0.095-0.903-0.144-1.381-0.144c-0.598,0-1.184,0.09-1.758,0.269
	s-1.161,0.269-1.758,0.269c-0.574,0-1.041-0.203-1.399-0.61c-0.359,0.359-0.777,0.646-1.256,0.861
	c-0.479,0.215-0.957,0.431-1.435,0.646s-0.933,0.466-1.363,0.753c-0.43,0.287-0.766,0.669-1.004,1.148
	c-0.215,0.407-0.455,0.844-0.718,1.31s-0.515,0.945-0.753,1.435c-0.239,0.491-0.443,0.981-0.61,1.472
	c-0.167,0.49-0.251,0.95-0.251,1.381c0,0.336,0.042,0.652,0.125,0.951c0.083,0.299,0.125,0.616,0.125,0.95
	c0,0.264-0.078,0.503-0.233,0.718C252.908,109.936,252.83,110.175,252.83,110.438z M258.427,107.19
	c0.311-0.586,0.646-1.059,1.005-1.417c0.239-0.239,0.496-0.419,0.771-0.538s0.532-0.275,0.771-0.467
	c0.191-0.167,0.323-0.328,0.395-0.483c0.072-0.156,0.144-0.306,0.215-0.449s0.173-0.274,0.305-0.395
	c0.131-0.119,0.353-0.238,0.664-0.359c0.167-0.047,0.586-0.148,1.256-0.305c0.669-0.154,1.387-0.311,2.152-0.467
	c0.765-0.154,1.471-0.292,2.117-0.412c0.646-0.119,1.041-0.18,1.184-0.18c1.076,0,1.973-0.035,2.691-0.107
	c0.717-0.071,1.393-0.209,2.027-0.412s1.274-0.467,1.919-0.79c0.646-0.323,1.423-0.735,2.332-1.238c0.048,0,0.108-0.018,0.18-0.054
	c0.072-0.036,0.131-0.054,0.179-0.054c0.215,0,0.376,0.144,0.484,0.431c0.107,0.287,0.185,0.616,0.233,0.986
	c0.048,0.371,0.078,0.735,0.09,1.095c0.012,0.358,0.018,0.609,0.018,0.753c0,0.67-0.012,1.327-0.036,1.974
	c-0.024,0.646-0.107,1.268-0.251,1.865c-0.144,0.599-0.365,1.172-0.664,1.722c-0.299,0.551-0.724,1.053-1.274,1.507
	c-0.239,0.192-0.413,0.371-0.52,0.539c-0.107,0.167-0.204,0.328-0.287,0.483c-0.084,0.156-0.161,0.312-0.233,0.467
	c-0.072,0.156-0.192,0.329-0.359,0.521c-0.407,0.479-0.957,0.873-1.65,1.184c-0.694,0.312-1.435,0.557-2.225,0.735
	c-0.789,0.18-1.579,0.312-2.368,0.395c-0.789,0.085-1.471,0.126-2.045,0.126c-0.479,0-1.047-0.036-1.704-0.107
	c-0.658-0.072-1.34-0.18-2.045-0.323c-0.706-0.144-1.406-0.347-2.099-0.609c-0.694-0.264-1.315-0.574-1.866-0.934
	c-0.55-0.358-0.993-0.789-1.327-1.291c-0.335-0.503-0.502-1.076-0.502-1.723C257.96,108.333,258.116,107.777,258.427,107.19z"/>
<path fill="#5690D6" d="M292.277,86.902c0.346,0.264,0.747,0.491,1.202,0.682c0.454,0.192,0.915,0.354,1.381,0.484
	c0.466,0.132,0.831,0.21,1.094,0.233c0.502,0.072,0.897,0.125,1.184,0.162c0.287,0.036,0.538,0.096,0.753,0.179
	c0.215,0.084,0.431,0.221,0.646,0.413c0.215,0.192,0.502,0.466,0.861,0.825c0.741,0.766,1.112,1.663,1.112,2.691
	c0,0.766-0.09,1.531-0.27,2.296c-0.179,0.766-0.269,1.531-0.269,2.296c0,0.263,0.036,0.526,0.108,0.789
	c0.072,0.264,0.149,0.502,0.233,0.718c0.083,0.215,0.162,0.395,0.233,0.538s0.107,0.228,0.107,0.251
	c0,0.096-0.042,0.204-0.125,0.323c-0.084,0.12-0.174,0.257-0.269,0.413c-0.096,0.156-0.186,0.335-0.269,0.538
	c-0.084,0.204-0.125,0.438-0.125,0.699c0,0.192,0.023,0.58,0.072,1.166c0.048,0.587,0.113,1.203,0.197,1.848
	c0.083,0.646,0.173,1.238,0.269,1.776c0.095,0.538,0.179,0.855,0.251,0.951c0.048,0.789,0.102,1.578,0.162,2.367
	c0.06,0.79,0.09,1.579,0.09,2.368c0,1.292-0.09,2.56-0.269,3.803c-0.18,1.244-0.269,2.499-0.269,3.768
	c0,0.646,0.005,1.291,0.018,1.938c0.012,0.646,0.018,1.291,0.018,1.938c0,0.908-0.03,1.817-0.09,2.727
	c-0.06,0.908-0.197,1.817-0.413,2.727c-0.407,0-0.789,0.065-1.148,0.197c-0.359,0.131-0.717,0.269-1.076,0.412
	s-0.724,0.281-1.094,0.413c-0.371,0.131-0.771,0.197-1.202,0.197c-0.191,0-0.455,0.041-0.789,0.125
	c-0.335,0.084-0.664,0.197-0.987,0.341c-0.323,0.144-0.61,0.317-0.861,0.521s-0.377,0.413-0.377,0.628
	c0,0.311,0.173,0.592,0.521,0.843c0.346,0.252,0.753,0.467,1.22,0.646c0.466,0.179,0.933,0.316,1.399,0.412
	c0.466,0.096,0.831,0.144,1.094,0.144c1.028,0,2.063-0.06,3.103-0.18c1.041-0.119,2.086-0.179,3.139-0.179
	c1.005,0,1.991,0.071,2.96,0.215s1.943,0.216,2.924,0.216c0.717,0,1.309-0.168,1.776-0.503c0.466-0.335,0.699-0.896,0.699-1.686
	c0-0.383-0.096-0.706-0.287-0.969c-0.192-0.264-0.431-0.484-0.718-0.664s-0.61-0.312-0.969-0.395
	c-0.359-0.084-0.694-0.149-1.004-0.197c-0.67-0.072-1.22-0.103-1.65-0.09c-0.431,0.012-0.789-0.042-1.076-0.161
	c-0.287-0.12-0.521-0.348-0.7-0.682c-0.179-0.336-0.353-0.886-0.52-1.65c-0.072-0.312-0.18-0.646-0.323-1.005
	s-0.293-0.724-0.448-1.094c-0.156-0.372-0.287-0.725-0.395-1.059c-0.108-0.336-0.162-0.646-0.162-0.933
	c0.119,0.023,0.227,0.041,0.323,0.054c0.095,0.012,0.191,0.018,0.287,0.018c0.144,0,0.257-0.036,0.341-0.107
	c0.083-0.072,0.125-0.228,0.125-0.467c-0.024-0.574-0.03-1.076-0.018-1.507s0.048-0.892,0.108-1.381
	c0.06-0.49,0.162-0.945,0.305-1.363c0.144-0.418,0.329-0.766,0.556-1.041c0.227-0.274,0.532-0.412,0.915-0.412
	c0.431,0,1.052,0.161,1.866,0.484c0.812,0.322,1.656,0.682,2.529,1.076c0.873,0.395,1.704,0.753,2.493,1.076
	c0.79,0.323,1.387,0.484,1.794,0.484c0.215,0,0.377-0.042,0.484-0.126c0.108-0.084,0.209-0.173,0.305-0.269
	c0.095-0.096,0.209-0.186,0.341-0.27c0.131-0.084,0.328-0.125,0.592-0.125c0.454,0,0.902,0.048,1.345,0.144
	c0.442,0.095,0.891,0.144,1.346,0.144c0.358,0,0.777-0.061,1.255-0.18c0.479-0.12,0.951-0.275,1.417-0.467s0.909-0.412,1.327-0.663
	s0.759-0.508,1.022-0.771c0.263-0.263,0.479-0.496,0.646-0.699c0.167-0.203,0.442-0.389,0.825-0.557
	c0.239-0.095,0.4-0.215,0.484-0.358c0.083-0.144,0.137-0.293,0.162-0.449c0.023-0.155,0.054-0.316,0.09-0.483
	c0.035-0.168,0.125-0.335,0.269-0.503c0.239-0.263,0.472-0.46,0.7-0.592c0.227-0.131,0.441-0.27,0.646-0.412
	c0.202-0.144,0.395-0.317,0.573-0.521c0.18-0.203,0.342-0.508,0.485-0.915c0.119-0.406,0.238-0.795,0.358-1.166
	c0.119-0.37,0.335-0.723,0.646-1.059c0.239-0.263,0.418-0.52,0.538-0.771c0.12-0.251,0.203-0.502,0.251-0.753
	s0.078-0.515,0.09-0.789c0.012-0.275,0.042-0.58,0.09-0.915c0.144-1.005,0.323-1.997,0.538-2.979
	c0.216-0.98,0.323-1.984,0.323-3.013c0-0.598-0.084-1.148-0.251-1.65c-0.168-0.502-0.348-0.974-0.538-1.417
	c-0.192-0.442-0.371-0.849-0.538-1.22c-0.168-0.371-0.252-0.736-0.252-1.094c0-0.144,0.048-0.281,0.144-0.413
	c0.096-0.131,0.144-0.281,0.144-0.449c0-0.287-0.084-0.508-0.251-0.664c-0.168-0.155-0.347-0.323-0.538-0.502
	c-0.191-0.179-0.298-0.4-0.465-0.664C329.01,91.734,329,91.363,329,90.884v-0.682c0-0.239-0.092-0.466-0.127-0.682
	c-0.036-0.215-0.162-0.418-0.307-0.61c-0.502-0.167-0.921-0.406-1.22-0.717c-0.299-0.311-0.59-0.682-0.853-1.112
	c-0.144-0.215-0.423-0.46-0.83-0.735s-0.887-0.556-1.437-0.843c-0.55-0.287-1.149-0.568-1.795-0.843
	c-0.646-0.274-1.268-0.514-1.866-0.717c-0.598-0.203-1.143-0.371-1.632-0.502c-0.491-0.131-0.868-0.197-1.131-0.197
	c-0.526,0-1.304,0.107-2.332,0.323c-1.029,0.215-2.105,0.484-3.229,0.807c-1.125,0.323-2.188,0.658-3.193,1.005
	s-1.758,0.64-2.26,0.879c-0.192,0.096-0.377,0.179-0.556,0.251s-0.365,0.108-0.556,0.108c-0.311,0-0.568-0.155-0.771-0.467
	c-0.203-0.311-0.466-0.651-0.789-1.022c-0.323-0.371-0.76-0.711-1.31-1.022c-0.55-0.311-1.34-0.466-2.368-0.466
	c-0.359,0-0.73,0.042-1.112,0.125c-0.383,0.084-0.706,0.257-0.969,0.521c-0.239-0.239-0.526-0.389-0.861-0.449
	c-0.335-0.059-0.67-0.089-1.005-0.089c-0.311,0-0.73,0.042-1.255,0.125c-0.526,0.084-1.047,0.215-1.561,0.395
	c-0.515,0.179-0.963,0.419-1.345,0.717c-0.383,0.3-0.574,0.652-0.574,1.059C291.756,86.352,291.93,86.639,292.277,86.902z
	 M314.251,85.216c-0.024,0-0.036,0.024-0.036,0.072c0-0.191,0.03-0.413,0.09-0.664c0.06-0.251,0.209-0.377,0.449-0.377
	c0.119,0,0.239,0.06,0.358,0.18s0.18,0.239,0.18,0.358c0,0.24-0.138,0.389-0.413,0.449c-0.275,0.06-0.497,0.089-0.664,0.089
	l0.144-0.071C314.335,85.228,314.299,85.216,314.251,85.216z M304.923,98.652c0.048-0.514,0.12-1.076,0.215-1.687
	c0.095-0.61,0.215-1.237,0.359-1.883s0.311-1.231,0.502-1.758c0.191-0.526,0.418-0.963,0.682-1.31s0.55-0.532,0.861-0.556
	c0.023-0.144,0.095-0.245,0.215-0.305c0.119-0.059,0.239-0.113,0.358-0.161s0.227-0.108,0.323-0.18
	c0.095-0.072,0.144-0.191,0.144-0.358c0.095,0.048,0.227,0.072,0.395,0.072c0.239,0,0.364-0.131,0.376-0.395
	c0.012-0.263,0.126-0.526,0.341-0.789c0.144-0.095,0.305-0.185,0.484-0.269c0.18-0.083,0.347-0.173,0.502-0.269
	c0.155-0.096,0.281-0.209,0.377-0.341c0.095-0.131,0.143-0.489,0.143-0.705c0-0.144-0.024,0.242-0.072-0.758h0.18
	c0.287,0,0.562,0.244,0.825,0.363c0.263,0.12,0.52,0.338,0.771,0.469c0.251,0.132,0.514,0.304,0.789,0.423
	c0.275,0.12,0.58,0.202,0.915,0.202c0.478,0,0.951-0.09,1.417-0.293c0.466-0.203,0.938-0.299,1.417-0.299
	c0.239,0,0.58,0.081,1.022,0.236c0.442,0.156,0.897,0.354,1.363,0.593c0.467,0.239,0.897,0.492,1.292,0.754
	c0.395,0.264,0.651,0.502,0.771,0.718c0.167,0.335,0.341,0.551,0.521,0.646c0.179,0.096,0.346,0.156,0.502,0.18
	c0.155,0.024,0.317,0.054,0.484,0.089c0.167,0.036,0.347,0.162,0.538,0.377c0.12,0.144,0.198,0.305,0.233,0.484
	c0.036,0.179,0.054,0.359,0.054,0.538s0.012,0.359,0.036,0.538c0.023,0.179,0.083,0.341,0.179,0.484
	c0.359,0.574,0.718,1.161,1.076,1.758c0.359,0.598,0.682,1.214,0.969,1.848c0.287,0.634,0.526,1.292,0.718,1.974
	s0.287,1.381,0.287,2.099c0,0.263-0.055,0.508-0.162,0.734c-0.107,0.229-0.227,0.461-0.358,0.7s-0.251,0.491-0.358,0.753
	c-0.107,0.264-0.162,0.551-0.162,0.861c0,0.312,0.023,0.616,0.072,0.915c0.047,0.299,0.072,0.604,0.072,0.915
	c0,0.431-0.061,0.735-0.18,0.915c-0.12,0.179-0.252,0.322-0.395,0.431c-0.144,0.107-0.498,0.215-0.617,0.322
	c-0.12,0.107-0.402,0.281-0.402,0.521v0.682c0,0.287,0.163,0.484,0.043,0.592s-0.295,0.281-0.75,0.521
	c-0.215,0.12-0.303,0.257-0.375,0.412c-0.072,0.156-0.098,0.317-0.134,0.484c-0.036,0.168-0.063,0.335-0.111,0.503
	c-0.048,0.167-0.137,0.322-0.28,0.466c-0.191,0.191-0.421,0.335-0.696,0.431s-0.507,0.251-0.698,0.467
	c-0.24,0.263-0.537,0.532-0.896,0.807c-0.359,0.275-0.735,0.533-1.13,0.771c-0.395,0.239-0.795,0.437-1.201,0.592
	c-0.407,0.156-0.79,0.233-1.148,0.233c-0.383,0-0.76-0.041-1.13-0.126c-0.371-0.083-0.748-0.173-1.13-0.269
	c-0.383-0.096-0.766-0.191-1.148-0.287c-0.383-0.096-0.766-0.144-1.148-0.144c-0.981-0.023-1.842-0.209-2.583-0.556
	c-0.742-0.347-1.417-0.777-2.027-1.292c-0.61-0.514-1.19-1.094-1.74-1.74c-0.55-0.646-1.125-1.291-1.722-1.938
	c0.048-0.669,0.09-1.327,0.125-1.973c0.036-0.646,0.054-1.292,0.054-1.938c0-0.861-0.054-1.716-0.161-2.565
	c-0.108-0.849-0.162-1.704-0.162-2.565C304.852,99.555,304.875,99.167,304.923,98.652z"/>
<path fill="#5690D6" d="M345.519,112.806c-0.538,0.383-1.137,0.676-1.794,0.879c-0.658,0.203-1.31,0.305-1.955,0.305
	c-0.407,0-0.796-0.012-1.166-0.036c-0.371-0.023-0.748-0.036-1.131-0.036c-0.144,0-0.358,0.108-0.646,0.323
	c-0.287,0.216-0.574,0.473-0.861,0.771c-0.286,0.3-0.544,0.604-0.771,0.915c-0.229,0.311-0.341,0.562-0.341,0.753
	c0,0.312,0.107,0.574,0.322,0.79c0.216,0.215,0.479,0.395,0.789,0.538s0.634,0.244,0.969,0.305c0.335,0.06,0.622,0.09,0.861,0.09
	c0.454,0,0.902-0.042,1.346-0.126c0.442-0.084,0.885-0.18,1.327-0.287s0.885-0.209,1.327-0.305s0.891-0.144,1.346-0.144
	c0.239,0,0.418,0.054,0.538,0.161c0.119,0.108,0.228,0.233,0.323,0.377c0.095,0.144,0.209,0.27,0.341,0.377
	c0.131,0.107,0.328,0.161,0.592,0.161c0.479,0,0.933-0.096,1.363-0.287s0.861-0.287,1.292-0.287c0.933,0,1.859,0.102,2.78,0.306
	c0.92,0.202,1.848,0.305,2.78,0.305c0.119,0,0.269-0.006,0.448-0.018c0.18-0.013,0.353-0.036,0.521-0.072
	c0.167-0.036,0.311-0.102,0.431-0.197c0.119-0.096,0.179-0.228,0.179-0.395c0-0.191-0.065-0.359-0.197-0.502
	c-0.132-0.144-0.197-0.311-0.197-0.503c0-0.095,0.072-0.197,0.216-0.305s0.311-0.197,0.502-0.27
	c0.191-0.071,0.383-0.131,0.574-0.179s0.335-0.072,0.431-0.072c0.238,0,0.442,0.061,0.609,0.18c0.167,0.12,0.353,0.251,0.557,0.395
	c0.203,0.144,0.431,0.275,0.682,0.395c0.251,0.12,0.567,0.18,0.95,0.18c0.216,0,0.431-0.036,0.646-0.107
	c0.215-0.072,0.382-0.203,0.502-0.395c-0.048-0.072-0.084-0.162-0.107-0.27c-0.024-0.107-0.036-0.209-0.036-0.305
	c0-0.167,0.036-0.317,0.107-0.449c0.072-0.131,0.155-0.256,0.251-0.376s0.18-0.245,0.252-0.377c0.071-0.131,0.107-0.27,0.107-0.413
	c0-0.19-0.066-0.334-0.197-0.43c-0.132-0.096-0.282-0.167-0.449-0.216c-0.119,0.359-0.311,0.622-0.573,0.789
	c-0.264,0.168-0.574,0.252-0.934,0.252c-0.048-0.144-0.071-0.264-0.071-0.359c0-0.238,0.029-0.448,0.09-0.628
	c0.06-0.179,0.107-0.358,0.144-0.538c0.035-0.179,0.041-0.353,0.018-0.52c-0.024-0.168-0.12-0.347-0.287-0.539
	c-0.479,0-0.999,0.019-1.561,0.055c-0.562,0.035-1.143,0.054-1.74,0.054c-0.55,0-1.088-0.036-1.614-0.108
	c-0.526-0.071-0.992-0.221-1.399-0.448c-0.406-0.227-0.729-0.544-0.969-0.95s-0.358-0.945-0.358-1.615
	c0-0.55,0.041-1.111,0.126-1.686c0.083-0.574,0.125-1.148,0.125-1.723c0-0.884-0.132-1.758-0.395-2.619
	c-0.264-0.86-0.395-1.709-0.395-2.547c0-0.669,0.149-1.273,0.448-1.812c0.299-0.539,0.651-1.07,1.059-1.597
	c0.238-0.311,0.448-0.705,0.628-1.184c0.18-0.478,0.358-0.951,0.538-1.417s0.377-0.902,0.592-1.31
	c0.216-0.406,0.479-0.705,0.789-0.897c0.407-0.263,0.831-0.508,1.274-0.735c0.441-0.227,0.914-0.364,1.417-0.413
	c0-0.382,0.185-0.783,0.556-1.202c0.371-0.418,0.808-0.807,1.31-1.166c0.502-0.358,1.022-0.651,1.561-0.879
	c0.538-0.227,0.986-0.341,1.346-0.341c0.238,0,0.442,0.078,0.609,0.233c0.167,0.156,0.359,0.233,0.574,0.233
	c0.239,0,0.425-0.095,0.557-0.287c0.131-0.191,0.353-0.287,0.663-0.287c0.144,0,0.311,0.036,0.503,0.107
	c-0.216,0.694-0.323,1.376-0.323,2.045c0,0.526,0.048,1.119,0.144,1.776c0.096,0.658,0.269,1.274,0.521,1.848
	c0.251,0.574,0.586,1.059,1.004,1.453c0.419,0.395,0.951,0.592,1.597,0.592c0.55,0,1.106-0.042,1.668-0.126
	c0.562-0.083,1.131-0.125,1.705-0.125c0.238,0,0.472,0.013,0.699,0.036c0.227,0.024,0.448,0.084,0.664,0.179
	c0.071-0.431,0.221-0.801,0.448-1.112c0.227-0.311,0.454-0.615,0.682-0.915c0.227-0.299,0.436-0.616,0.628-0.951
	c0.19-0.335,0.287-0.741,0.287-1.22c0-0.454-0.084-0.891-0.252-1.309c-0.167-0.418-0.353-0.825-0.556-1.22
	c-0.203-0.395-0.4-0.795-0.592-1.202c-0.191-0.406-0.323-0.837-0.395-1.292c-0.096-0.741-0.443-1.411-1.041-2.009
	c-0.598-0.598-1.298-1.118-2.099-1.561c-0.802-0.442-1.639-0.795-2.511-1.059c-0.874-0.263-1.633-0.418-2.278-0.466
	c-0.239,0.239-0.568,0.455-0.987,0.646c-0.418,0.191-0.86,0.353-1.327,0.484s-0.933,0.233-1.399,0.305
	c-0.466,0.072-0.855,0.108-1.166,0.108c-0.526,0-1.011,0.107-1.453,0.323s-0.879,0.455-1.31,0.717
	c-0.43,0.264-0.867,0.527-1.309,0.79c-0.443,0.264-0.928,0.431-1.453,0.502c-0.264,0.048-0.491,0.144-0.682,0.287
	c-0.192,0.144-0.383,0.299-0.574,0.467c-0.192,0.167-0.39,0.317-0.592,0.448c-0.204,0.132-0.426,0.197-0.664,0.197
	c-0.526,0-0.909-0.161-1.148-0.484c-0.239-0.323-0.448-0.687-0.628-1.094c-0.179-0.406-0.376-0.807-0.592-1.202
	c-0.215-0.395-0.55-0.664-1.004-0.807c-0.503-0.167-1.018-0.275-1.543-0.323c-0.526-0.047-1.053-0.072-1.579-0.072
	c-0.766,0-1.524,0.042-2.278,0.126c-0.753,0.084-1.513,0.125-2.277,0.125c-0.383,0-0.778-0.012-1.185-0.036
	c-0.406-0.023-0.802-0.036-1.184-0.036c-0.431,0-0.831,0.036-1.202,0.107s-0.693,0.204-0.969,0.395
	c-0.275,0.192-0.496,0.473-0.663,0.843c-0.168,0.371-0.252,0.855-0.252,1.453c0,0.55,0.18,0.993,0.539,1.327
	c0.358,0.335,0.789,0.592,1.291,0.771c0.502,0.18,1.028,0.299,1.579,0.359c0.55,0.06,1.027,0.09,1.435,0.09
	c0.55,0,1.088-0.06,1.614-0.18c0.526-0.119,1.053-0.179,1.579-0.179c0.478,0,0.854,0.263,1.13,0.789
	c0.274,0.526,0.479,1.137,0.61,1.83c0.131,0.694,0.209,1.387,0.232,2.081c0.023,0.694,0.036,1.22,0.036,1.579
	c0,0.79-0.018,1.573-0.054,2.35c-0.036,0.777-0.054,1.561-0.054,2.35c0,0.885,0.09,1.764,0.269,2.637
	c0.18,0.873,0.27,1.729,0.27,2.565c0,0.622-0.072,1.244-0.215,1.865c-0.144,0.622-0.216,1.244-0.216,1.866
	c0,0.311,0.023,0.615,0.072,0.914c0.047,0.3,0.071,0.604,0.071,0.915c0,0.718-0.168,1.363-0.502,1.938
	C346.492,111.944,346.057,112.423,345.519,112.806z"/>
<path fill="#5690D6" d="M382.059,107.89c0.406,0.67,0.759,1.364,1.059,2.081c0.299,0.718,0.723,1.352,1.273,1.901
	c0.454,0.455,0.915,0.951,1.382,1.489c0.466,0.538,0.968,1.04,1.507,1.507c0.538,0.467,1.111,0.861,1.722,1.184
	c0.61,0.323,1.273,0.484,1.991,0.484c0.144,0,0.287-0.018,0.431-0.054s0.274-0.113,0.395-0.233
	c-0.024,0.072-0.036,0.168-0.036,0.287c0,0.336,0.107,0.616,0.323,0.844c0.215,0.227,0.478,0.412,0.789,0.556
	c0.311,0.144,0.646,0.245,1.005,0.305c0.358,0.06,0.669,0.09,0.933,0.09c0.358,0,0.718-0.023,1.076-0.071
	c0.358-0.049,0.729-0.072,1.112-0.072c0.287,0,0.556,0.048,0.808,0.144c0.251,0.096,0.502,0.203,0.753,0.323
	c0.251,0.119,0.502,0.227,0.754,0.323c0.251,0.095,0.52,0.143,0.807,0.143c0.526,0,1.028-0.096,1.507-0.286
	c0.479-0.192,0.951-0.401,1.417-0.628c0.467-0.228,0.933-0.582,1.399-0.773s0.975-0.432,1.524-0.432h0.18
	c0.119,0,0.413-1.08,0.879-1.381c0.467-0.297,0.987-0.458,1.561-0.626c0.574-0.167,1.154-0.311,1.74-0.502s1.046-0.521,1.382-1.022
	c0.143-0.216,0.274-0.439,0.395-0.69c0.119-0.251,0.251-0.485,0.395-0.714c0.144-0.227,0.299-0.433,0.466-0.624
	s0.383-0.358,0.646-0.502c0.167-0.095,0.341-0.191,0.52-0.287c0.18-0.095,0.27-0.262,0.27-0.501c0-0.335-0.174-0.657-0.521-0.969
	c-0.347-0.311-0.753-0.592-1.22-0.843s-0.938-0.449-1.417-0.592c-0.479-0.144-0.861-0.216-1.148-0.216l-0.395,0.036
	c0-0.239,0.072-0.425,0.216-0.557c0.144-0.131,0.305-0.251,0.484-0.358c0.179-0.107,0.346-0.227,0.502-0.358
	c0.155-0.132,0.233-0.306,0.233-0.521c0-0.072-0.066-0.131-0.197-0.18c-0.132-0.048-0.282-0.309-0.449-0.332S410.18,105,410.024,105
	s-0.269,0-0.341,0c-0.263,0-0.515,0.238-0.753,0.262c-0.239,0.023-0.479,0.148-0.718,0.148c-0.215,0.502-0.508,1.013-0.879,1.419
	c-0.371,0.407-0.688,0.877-0.95,1.355c-0.526,0.909-1.221,1.653-2.081,2.203c-0.861,0.551-1.782,0.976-2.763,1.263
	c-0.407,0.12-0.861,0.29-1.363,0.505c-0.502,0.216-1.011,0.427-1.524,0.63c-0.515,0.204-1.018,0.384-1.507,0.539
	c-0.491,0.156-0.939,0.234-1.346,0.234c-0.239,0-0.437-0.071-0.592-0.215c-0.156-0.144-0.306-0.306-0.449-0.484
	c-0.144-0.18-0.299-0.341-0.466-0.484c-0.168-0.144-0.383-0.216-0.646-0.216c-0.287,0-0.484,0.049-0.593,0.144
	c-0.107,0.096-0.186,0.204-0.232,0.323c-0.049,0.12-0.097,0.239-0.144,0.358c-0.049,0.12-0.156,0.192-0.323,0.216
	c-0.287-0.383-0.461-0.813-0.521-1.292s-0.233-0.734-0.52-1.117L390.885,111h-0.18c-0.407,0-0.688-0.281-0.843-0.496
	c-0.156-0.216-0.287-0.56-0.395-0.858c-0.108-0.299-0.24-0.636-0.396-0.923s-0.425-0.512-0.807-0.632
	c-0.335-0.095-0.557-0.214-0.664-0.333c-0.107-0.12-0.161-0.364-0.161-0.723c0-0.406,0.054-0.816,0.161-1.223
	s0.162-0.814,0.162-1.222c0-0.551-0.097-1.064-0.287-1.543c-0.192-0.479-0.287-0.993-0.287-1.544c0-0.311-0.036-0.747-0.108-1.31
	c-0.071-0.562-0.155-1.153-0.251-1.776c-0.096-0.622-0.203-1.213-0.322-1.776c-0.12-0.562-0.216-1.01-0.287-1.345
	c0.287-0.023,0.604-0.233,0.95-0.628s0.682-0.843,1.005-1.345c0.323-0.502,0.628-1.005,0.915-1.507
	c0.287-0.502,0.514-0.873,0.682-1.112c0.191-0.287,0.49-0.628,0.896-1.022s0.855-0.771,1.346-1.13
	c0.49-0.358,0.975-0.664,1.453-0.915c0.479-0.251,0.885-0.377,1.22-0.377c0.263,0,0.448,0.09,0.556,0.269
	c0.108,0.18,0.162,0.377,0.162,0.592c0.574-0.215,1.166-0.371,1.775-0.467c0.61-0.095,1.226-0.143,1.848-0.143
	c0.431,0,0.855,0.024,1.273,0.071c0.419,0.048,0.808,0.15,1.166,0.305c0.359,0.156,0.676,0.377,0.951,0.664
	c0.274,0.287,0.496,0.658,0.664,1.112c0,0.359-0.03,0.718-0.09,1.076c-0.061,0.359-0.09,0.718-0.09,1.077
	c0,0.287,0.138,0.699,0.412,1.238c0.275,0.538,0.593,1.112,0.951,1.722c0.358,0.61,0.718,1.196,1.076,1.758
	c0.359,0.562,0.634,0.999,0.825,1.31l2.332,0.036c1.1,0.024,2.021-0.102,2.763-0.376c0.741-0.275,1.333-0.682,1.775-1.22
	c0.442-0.538,0.754-1.202,0.934-1.991c0.179-0.79,0.269-1.71,0.269-2.763c0-0.98-0.09-1.728-0.269-2.242
	c-0.18-0.514-0.431-0.945-0.754-1.292c-0.322-0.346-0.575-0.682-0.993-1.004S411,86.197,411,85.575V84.57
	c0-0.167-0.562-0.274-0.801-0.323c-0.24-0.047-0.527-0.095-0.742-0.144c-0.216-0.047-0.46-0.125-0.676-0.233
	c-0.215-0.108-0.422-0.305-0.59-0.592c-0.119-0.191-0.348-0.316-0.67-0.376c-0.323-0.06-0.584-0.197-0.775-0.413
	c-0.072-0.095-0.146-0.197-0.217-0.305c-0.072-0.107-0.169-0.161-0.288-0.161c-0.144,0-0.288,0.084-0.432,0.251
	c-0.144,0.167-0.323,0.251-0.538,0.251l-0.144-0.036c-0.407-0.215-0.832-0.449-1.273-0.7c-0.443-0.251-0.915-0.376-1.418-0.376
	c-0.335,0-0.663,0.042-0.986,0.125c-0.323,0.084-0.652,0.125-0.986,0.125c-0.789,0-1.579-0.108-2.368-0.323
	c-0.789-0.215-1.603-0.323-2.439-0.323c-0.216,0-0.461,0.006-0.735,0.018c-0.275,0.012-0.551,0.054-0.825,0.125
	c-0.275,0.072-0.521,0.174-0.735,0.305c-0.216,0.132-0.383,0.305-0.503,0.52l0.359,0.359c-0.336,0.096-0.67,0.156-1.005,0.179
	c-0.335,0.024-0.67,0.042-1.005,0.054s-0.67,0.024-1.004,0.036c-0.336,0.012-0.67,0.054-1.005,0.125
	c-0.383,0.096-0.658,0.204-0.825,0.323c-0.168,0.12-0.293,0.264-0.377,0.431c-0.084,0.167-0.174,0.341-0.269,0.521
	c-0.096,0.179-0.264,0.365-0.503,0.556c-0.096,0.072-0.239,0.144-0.43,0.215c-0.192,0.072-0.377,0.15-0.557,0.233
	c-0.18,0.084-0.335,0.179-0.466,0.287c-0.132,0.107-0.198,0.233-0.198,0.376c0,0.215,0.09,0.341,0.27,0.377
	c0.18,0.036,0.37,0.066,0.574,0.089c0.203,0.024,0.395,0.072,0.574,0.144c0.179,0.072,0.269,0.251,0.269,0.538l-0.036,0.287
	c-0.263,0.072-0.538,0.108-0.825,0.108c-0.335,0-0.646-0.048-0.933-0.144c-0.287-0.095-0.598-0.144-0.933-0.144
	c-0.454,0-0.819,0.281-1.094,0.843c-0.275,0.562-0.503,1.208-0.682,1.937c-0.18,0.73-0.348,1.459-0.503,2.188
	c-0.155,0.73-0.329,1.25-0.52,1.561c-0.12,0.191-0.233,0.371-0.341,0.538c-0.108,0.167-0.162,0.371-0.162,0.61
	c0,0.335,0.084,0.64,0.251,0.915c0.167,0.275,0.252,0.581,0.252,0.915c0,0.144-0.049,0.251-0.144,0.323
	c-0.097,0.072-0.21,0.138-0.341,0.197c-0.132,0.06-0.27,0.12-0.413,0.18c-0.144,0.06-0.264,0.149-0.358,0.269
	c-0.12,0.167-0.197,0.437-0.233,0.807c-0.036,0.371-0.054,0.7-0.054,0.987c0,1.555,0.095,3.044,0.287,4.466
	C380.671,105.098,381.197,106.503,382.059,107.89z M410.868,111.944c0.119-0.216,0.263-0.323,0.431-0.323
	c0.144,0,0.269,0.054,0.376,0.162c0.108,0.107,0.162,0.232,0.162,0.376c0,0.192-0.066,0.317-0.197,0.377
	c-0.132,0.06-0.258,0.09-0.377,0.09c-0.048,0-0.156,0.006-0.323,0.018c-0.167,0.013-0.251-0.054-0.251-0.197
	C410.688,112.327,410.748,112.159,410.868,111.944z"/>
<path fill="#5690D6" d="M428.287,112.806c-0.538,0.383-1.137,0.676-1.794,0.879c-0.658,0.203-1.31,0.305-1.955,0.305
	c-0.407,0-0.796-0.012-1.166-0.036c-0.371-0.023-0.748-0.036-1.131-0.036c-0.144,0-0.358,0.108-0.646,0.323
	c-0.287,0.216-0.574,0.473-0.861,0.771c-0.286,0.3-0.544,0.604-0.771,0.915c-0.229,0.311-0.341,0.562-0.341,0.753
	c0,0.312,0.107,0.574,0.322,0.79c0.216,0.215,0.479,0.395,0.789,0.538s0.634,0.244,0.969,0.305c0.335,0.06,0.622,0.09,0.861,0.09
	c0.454,0,0.902-0.042,1.346-0.126c0.442-0.084,0.885-0.18,1.327-0.287s0.885-0.209,1.327-0.305s0.891-0.144,1.346-0.144
	c0.239,0,0.418,0.054,0.538,0.161c0.119,0.108,0.228,0.233,0.323,0.377c0.095,0.144,0.209,0.27,0.341,0.377
	c0.131,0.107,0.328,0.161,0.592,0.161c0.479,0,0.933-0.096,1.363-0.287s0.861-0.287,1.292-0.287c0.933,0,1.859,0.102,2.78,0.306
	c0.92,0.202,1.848,0.305,2.78,0.305c0.119,0,0.269-0.006,0.448-0.018c0.18-0.013,0.353-0.036,0.521-0.072
	c0.167-0.036,0.311-0.102,0.431-0.197c0.119-0.096,0.179-0.228,0.179-0.395c0-0.191-0.065-0.359-0.197-0.502
	c-0.132-0.144-0.197-0.311-0.197-0.503c0-0.095,0.072-0.197,0.216-0.305s0.311-0.197,0.502-0.27
	c0.191-0.071,0.383-0.131,0.574-0.179s0.335-0.072,0.431-0.072c0.238,0,0.442,0.061,0.609,0.18c0.167,0.12,0.353,0.251,0.557,0.395
	c0.203,0.144,0.431,0.275,0.682,0.395c0.251,0.12,0.567,0.18,0.95,0.18c0.216,0,0.431-0.036,0.646-0.107
	c0.215-0.072,0.382-0.203,0.502-0.395c-0.048-0.072-0.084-0.162-0.107-0.27c-0.024-0.107-0.036-0.209-0.036-0.305
	c0-0.167,0.036-0.317,0.107-0.449c0.072-0.131,0.155-0.256,0.251-0.376s0.18-0.245,0.252-0.377c0.071-0.131,0.107-0.27,0.107-0.413
	c0-0.19-0.066-0.334-0.197-0.43c-0.132-0.096-0.282-0.167-0.449-0.216c-0.119,0.359-0.311,0.622-0.573,0.789
	c-0.264,0.168-0.574,0.252-0.934,0.252c-0.048-0.144-0.071-0.264-0.071-0.359c0-0.238,0.029-0.448,0.09-0.628
	c0.06-0.179,0.107-0.358,0.144-0.538c0.035-0.179,0.041-0.353,0.018-0.52c-0.024-0.168-0.12-0.347-0.287-0.539
	c-0.479,0-0.999,0.019-1.561,0.055c-0.562,0.035-1.143,0.054-1.74,0.054c-0.55,0-1.088-0.036-1.614-0.108
	c-0.526-0.071-0.992-0.221-1.399-0.448c-0.406-0.227-0.729-0.544-0.969-0.95s-0.358-0.945-0.358-1.615
	c0-0.55,0.041-1.111,0.126-1.686c0.083-0.574,0.125-1.148,0.125-1.723c0-0.884-0.132-1.758-0.395-2.619
	c-0.264-0.86-0.395-1.709-0.395-2.547c0-0.669,0.149-1.273,0.448-1.812c0.299-0.539,0.651-1.07,1.059-1.597
	c0.238-0.311,0.448-0.705,0.628-1.184c0.18-0.478,0.358-0.951,0.538-1.417s0.377-0.902,0.592-1.31
	c0.216-0.406,0.479-0.705,0.789-0.897c0.407-0.263,0.831-0.508,1.274-0.735c0.441-0.227,0.914-0.364,1.417-0.413
	c0-0.382,0.185-0.783,0.556-1.202c0.371-0.418,0.808-0.807,1.31-1.166c0.502-0.358,1.022-0.651,1.561-0.879
	c0.538-0.227,0.986-0.341,1.346-0.341c0.238,0,0.442,0.078,0.609,0.233c0.167,0.156,0.359,0.233,0.574,0.233
	c0.239,0,0.425-0.095,0.557-0.287c0.131-0.191,0.353-0.287,0.663-0.287c0.144,0,0.311,0.036,0.503,0.107
	c-0.216,0.694-0.323,1.376-0.323,2.045c0,0.526,0.048,1.119,0.144,1.776c0.096,0.658,0.269,1.274,0.521,1.848
	c0.251,0.574,0.586,1.059,1.004,1.453c0.419,0.395,0.951,0.592,1.597,0.592c0.55,0,1.106-0.042,1.668-0.126
	c0.562-0.083,1.131-0.125,1.705-0.125c0.238,0,0.472,0.013,0.699,0.036c0.227,0.024,0.448,0.084,0.664,0.179
	c0.071-0.431,0.221-0.801,0.448-1.112c0.227-0.311,0.454-0.615,0.682-0.915c0.227-0.299,0.436-0.616,0.628-0.951
	c0.19-0.335,0.287-0.741,0.287-1.22c0-0.454-0.084-0.891-0.252-1.309c-0.167-0.418-0.353-0.825-0.556-1.22
	c-0.203-0.395-0.4-0.795-0.592-1.202c-0.191-0.406-0.323-0.837-0.395-1.292c-0.096-0.741-0.443-1.411-1.041-2.009
	c-0.598-0.598-1.298-1.118-2.099-1.561c-0.802-0.442-1.639-0.795-2.511-1.059c-0.874-0.263-1.633-0.418-2.278-0.466
	c-0.239,0.239-0.568,0.455-0.987,0.646c-0.418,0.191-0.86,0.353-1.327,0.484s-0.933,0.233-1.399,0.305
	c-0.466,0.072-0.855,0.108-1.166,0.108c-0.526,0-1.011,0.107-1.453,0.323s-0.879,0.455-1.31,0.717
	c-0.43,0.264-0.867,0.527-1.309,0.79c-0.443,0.264-0.928,0.431-1.453,0.502c-0.264,0.048-0.491,0.144-0.682,0.287
	c-0.192,0.144-0.383,0.299-0.574,0.467c-0.192,0.167-0.39,0.317-0.592,0.448c-0.204,0.132-0.426,0.197-0.664,0.197
	c-0.526,0-0.909-0.161-1.148-0.484c-0.239-0.323-0.448-0.687-0.628-1.094c-0.179-0.406-0.376-0.807-0.592-1.202
	c-0.215-0.395-0.55-0.664-1.004-0.807c-0.503-0.167-1.018-0.275-1.543-0.323c-0.526-0.047-1.053-0.072-1.579-0.072
	c-0.766,0-1.524,0.042-2.278,0.126c-0.753,0.084-1.513,0.125-2.277,0.125c-0.383,0-0.778-0.012-1.185-0.036
	c-0.406-0.023-0.802-0.036-1.184-0.036c-0.431,0-0.831,0.036-1.202,0.107s-0.693,0.204-0.969,0.395
	c-0.275,0.192-0.496,0.473-0.663,0.843c-0.168,0.371-0.252,0.855-0.252,1.453c0,0.55,0.18,0.993,0.539,1.327
	c0.358,0.335,0.789,0.592,1.291,0.771c0.502,0.18,1.028,0.299,1.579,0.359c0.55,0.06,1.027,0.09,1.435,0.09
	c0.55,0,1.088-0.06,1.614-0.18c0.526-0.119,1.053-0.179,1.579-0.179c0.478,0,0.854,0.263,1.13,0.789
	c0.274,0.526,0.479,1.137,0.61,1.83c0.131,0.694,0.209,1.387,0.232,2.081c0.023,0.694,0.036,1.22,0.036,1.579
	c0,0.79-0.018,1.573-0.054,2.35c-0.036,0.777-0.054,1.561-0.054,2.35c0,0.885,0.09,1.764,0.269,2.637
	c0.18,0.873,0.27,1.729,0.27,2.565c0,0.622-0.072,1.244-0.215,1.865c-0.144,0.622-0.216,1.244-0.216,1.866
	c0,0.311,0.023,0.615,0.072,0.914c0.047,0.3,0.071,0.604,0.071,0.915c0,0.718-0.168,1.363-0.502,1.938
	C429.261,111.944,428.825,112.423,428.287,112.806z"/>
<path fill="#5690D6" d="M462.854,110.438c0,0.335,0.179,0.843,0.538,1.524c0.358,0.682,0.789,1.37,1.291,2.063
	c0.503,0.693,1.028,1.304,1.579,1.829c0.55,0.526,1.016,0.79,1.398,0.79c0.264,0,0.503-0.06,0.718-0.18
	c0.216-0.119,0.406-0.274,0.574-0.467c-0.024,0.072-0.036,0.156-0.036,0.251c0,0.431,0.233,0.767,0.7,1.005
	c0.466,0.239,1.004,0.413,1.614,0.521c0.609,0.107,1.214,0.167,1.812,0.179c0.598,0.013,1.041,0.019,1.327,0.019
	c1.101,0,2.194-0.024,3.283-0.072c1.088-0.048,2.171-0.215,3.247-0.502c0.311-0.096,0.651-0.221,1.022-0.377
	c0.37-0.155,0.735-0.311,1.094-0.466c0.359-0.155,0.718-0.293,1.076-0.413c0.359-0.119,0.706-0.179,1.041-0.179
	c0.406,0,0.747-0.084,1.022-0.252c0.274-0.167,0.525-0.346,0.753-0.538c0.228-0.19,0.454-0.37,0.682-0.538
	c0.228-0.167,0.496-0.251,0.808-0.251c0.287,0,0.64,0.168,1.059,0.502c0.418,0.336,0.885,0.7,1.399,1.095
	c0.514,0.395,1.076,0.753,1.686,1.076c0.61,0.323,1.262,0.484,1.956,0.484c0.812,0,1.619-0.197,2.421-0.592s1.561-0.783,2.278-1.166
	c0.335-0.167,0.58-0.316,0.735-0.448s0.27-0.275,0.341-0.431c0.072-0.155,0.126-0.341,0.162-0.557
	c0.035-0.215,0.102-0.489,0.197-0.825c0.119-0.382,0.251-0.753,0.395-1.112c0.144-0.358,0.215-0.74,0.215-1.147
	c0-0.263-0.06-0.472-0.179-0.628c-0.12-0.155-0.275-0.274-0.467-0.358s-0.4-0.138-0.628-0.162c-0.228-0.023-0.448-0.036-0.664-0.036
	c-0.479,0-0.873,0.168-1.184,0.503c-0.312,0.335-0.598,0.699-0.861,1.094c-0.263,0.395-0.556,0.754-0.879,1.076
	c-0.322,0.323-0.747,0.484-1.273,0.484c-0.12,0-0.233-0.065-0.341-0.197c-0.107-0.131-0.186-0.484-0.233-1.058
	c0-0.934-0.054-1.872-0.161-2.816c-0.107-0.945-0.233-1.89-0.377-2.835c-0.144-0.944-0.269-1.889-0.377-2.834
	c-0.107-0.944-0.161-1.896-0.161-2.852c0-1.005,0.03-1.991,0.09-2.96s0.09-1.955,0.09-2.96c0-0.741-0.042-1.548-0.126-2.421
	s-0.228-1.74-0.431-2.601c-0.203-0.861-0.479-1.68-0.825-2.458c-0.347-0.777-0.783-1.453-1.31-2.027
	c-0.717-0.765-1.537-1.429-2.457-1.991c-0.921-0.562-1.896-1.034-2.924-1.417c-1.029-0.382-2.081-0.664-3.157-0.843
	c-1.076-0.179-2.129-0.269-3.157-0.269l-1.112,0.036c-0.599,0.024-1.179,0.107-1.74,0.251c-0.562,0.144-1.124,0.311-1.687,0.502
	c-0.562,0.191-1.111,0.4-1.649,0.627c-0.539,0.228-1.095,0.425-1.669,0.592c-0.215,0.072-0.484,0.149-0.807,0.233
	c-0.323,0.084-0.658,0.174-1.005,0.269c-0.347,0.096-0.67,0.192-0.969,0.287c-0.3,0.096-0.532,0.192-0.699,0.287
	c-0.12,0.622-0.317,1.202-0.593,1.74c-0.274,0.538-0.556,1.076-0.843,1.614s-0.544,1.089-0.771,1.65
	c-0.228,0.562-0.341,1.166-0.341,1.812c0,0.598,0.149,1.19,0.448,1.776s0.58,1.13,0.844,1.632c0.334,0.694,0.765,1.136,1.291,1.327
	c0.526,0.192,1.148,0.287,1.866,0.287c0.598,0,1.22-0.054,1.865-0.162c0.646-0.107,1.238-0.305,1.776-0.592s0.98-0.669,1.327-1.148
	c0.347-0.478,0.521-1.076,0.521-1.794c0-0.478-0.042-0.951-0.126-1.417s-0.125-0.938-0.125-1.417c0-0.812,0.215-1.429,0.646-1.848
	c0.431-0.418,0.956-0.717,1.578-0.896c0.622-0.18,1.292-0.287,2.01-0.323c0.717-0.036,1.363-0.102,1.937-0.197
	c0.072,0,0.155-0.012,0.252-0.036c0.095-0.024,0.19-0.036,0.287-0.036c0.765,0,1.565,0.228,2.403,0.682
	c0.837,0.455,1.603,1.035,2.296,1.74c0.693,0.706,1.262,1.483,1.704,2.332c0.442,0.849,0.664,1.656,0.664,2.421
	c0,0.694-0.156,1.238-0.467,1.633c-0.311,0.395-0.717,0.706-1.22,0.933c-0.502,0.228-1.07,0.401-1.704,0.52
	c-0.634,0.12-1.268,0.233-1.901,0.341c-0.634,0.108-1.244,0.251-1.83,0.431s-1.07,0.437-1.452,0.771
	c-0.384,0.335-0.7,0.568-0.951,0.7s-0.641,0.197-1.166,0.197c-0.479,0-0.939-0.048-1.381-0.144
	c-0.443-0.095-0.903-0.144-1.382-0.144c-0.598,0-1.184,0.09-1.758,0.269s-1.16,0.269-1.758,0.269c-0.574,0-1.041-0.203-1.399-0.61
	c-0.358,0.359-0.777,0.646-1.256,0.861c-0.479,0.215-0.957,0.431-1.435,0.646c-0.479,0.215-0.934,0.466-1.363,0.753
	c-0.431,0.287-0.766,0.669-1.005,1.148c-0.215,0.407-0.455,0.844-0.718,1.31c-0.264,0.466-0.515,0.945-0.753,1.435
	c-0.239,0.491-0.443,0.981-0.61,1.472s-0.251,0.95-0.251,1.381c0,0.336,0.041,0.652,0.126,0.951c0.083,0.299,0.125,0.616,0.125,0.95
	c0,0.264-0.078,0.503-0.233,0.718C462.932,109.936,462.854,110.175,462.854,110.438z M468.451,107.19
	c0.311-0.586,0.646-1.059,1.004-1.417c0.239-0.239,0.496-0.419,0.771-0.538s0.532-0.275,0.771-0.467
	c0.191-0.167,0.323-0.328,0.395-0.483c0.072-0.156,0.144-0.306,0.216-0.449c0.071-0.144,0.173-0.274,0.305-0.395
	c0.131-0.119,0.353-0.238,0.664-0.359c0.167-0.047,0.585-0.148,1.255-0.305c0.67-0.154,1.388-0.311,2.153-0.467
	c0.765-0.154,1.471-0.292,2.116-0.412c0.646-0.119,1.041-0.18,1.185-0.18c1.076,0,1.973-0.035,2.69-0.107
	c0.718-0.071,1.393-0.209,2.027-0.412c0.633-0.203,1.273-0.467,1.919-0.79s1.423-0.735,2.332-1.238c0.048,0,0.107-0.018,0.18-0.054
	c0.071-0.036,0.131-0.054,0.179-0.054c0.216,0,0.377,0.144,0.484,0.431c0.108,0.287,0.186,0.616,0.233,0.986
	c0.048,0.371,0.077,0.735,0.09,1.095c0.012,0.358,0.018,0.609,0.018,0.753c0,0.67-0.012,1.327-0.035,1.974
	c-0.024,0.646-0.107,1.268-0.251,1.865c-0.144,0.599-0.365,1.172-0.664,1.722c-0.3,0.551-0.724,1.053-1.273,1.507
	c-0.239,0.192-0.413,0.371-0.521,0.539c-0.107,0.167-0.203,0.328-0.287,0.483c-0.084,0.156-0.161,0.312-0.233,0.467
	c-0.071,0.156-0.191,0.329-0.358,0.521c-0.407,0.479-0.957,0.873-1.65,1.184c-0.694,0.312-1.436,0.557-2.225,0.735
	c-0.789,0.18-1.578,0.312-2.368,0.395c-0.789,0.085-1.471,0.126-2.045,0.126c-0.479,0-1.046-0.036-1.704-0.107
	c-0.658-0.072-1.34-0.18-2.045-0.323s-1.405-0.347-2.099-0.609c-0.694-0.264-1.315-0.574-1.865-0.934
	c-0.551-0.358-0.993-0.789-1.328-1.291c-0.335-0.503-0.502-1.076-0.502-1.723C467.984,108.333,468.14,107.777,468.451,107.19z"/>
<path fill="#5690D6" d="M503.916,118.6c0.322,0.179,0.669,0.353,1.04,0.52c0.37,0.168,0.735,0.299,1.095,0.396
	c0.358,0.095,0.669,0.144,0.933,0.144c0.598,0,1.195-0.061,1.794-0.18c0.598-0.12,1.189-0.258,1.775-0.413s1.166-0.311,1.74-0.466
	c0.574-0.156,1.16-0.258,1.758-0.306c1.076-0.096,2.135-0.149,3.175-0.161c1.041-0.012,2.1-0.018,3.176-0.018
	c0.454,0,0.885,0.071,1.291,0.215s0.808,0.293,1.202,0.448s0.777,0.306,1.148,0.449c0.37,0.144,0.759,0.215,1.166,0.215
	c0.646,0,1.279-0.132,1.901-0.395c0.621-0.264,1.256-0.442,1.901-0.538c0.502-0.072,0.944-0.233,1.327-0.484
	s0.705-0.568,0.969-0.951c0.263-0.382,0.46-0.801,0.592-1.255s0.197-0.934,0.197-1.436c0-0.598-0.269-1.07-0.807-1.417
	s-1.173-0.61-1.901-0.789c-0.73-0.18-1.472-0.293-2.225-0.341c-0.754-0.048-1.346-0.072-1.776-0.072
	c-0.67,0-1.321,0.084-1.955,0.251c-0.634,0.168-1.273,0.3-1.919,0.395c-0.072-0.358-0.192-0.669-0.359-0.933
	c-0.167-0.263-0.347-0.531-0.538-0.807s-0.358-0.562-0.502-0.861s-0.216-0.664-0.216-1.095c0-0.525,0.078-1.034,0.233-1.524
	s0.233-0.998,0.233-1.524c0-0.263-0.054-0.526-0.161-0.79c-0.108-0.263-0.162-0.525-0.162-0.789c0-0.382,0.126-0.872,0.377-1.471
	c0.251-0.598,0.377-1.363,0.377-2.296c0-1.626-0.09-3.234-0.27-4.825c-0.179-1.59-0.269-3.187-0.269-4.79
	c0-0.335,0.018-0.669,0.054-1.004s0.113-0.634,0.233-0.897c0.119-0.263,0.305-0.479,0.556-0.646c0.251-0.167,0.58-0.251,0.986-0.251
	c0.383,0,0.909-0.012,1.579-0.036c0.669-0.023,1.327-0.107,1.973-0.251c0.646-0.144,1.202-0.364,1.669-0.664
	c0.466-0.299,0.699-0.723,0.699-1.274c0-0.239-0.125-0.55-0.377-0.933c-0.251-0.382-0.55-0.759-0.896-1.13
	c-0.347-0.371-0.694-0.693-1.04-0.968c-0.348-0.275-0.616-0.413-0.808-0.413c-1.005,0-1.807-0.018-2.403-0.054
	c-0.599-0.036-1.053-0.191-1.364-0.466c-0.311-0.274-0.514-0.717-0.609-1.327c-0.096-0.61-0.144-1.477-0.144-2.602
	c0-1.028,0.263-1.907,0.789-2.637c0.526-0.729,1.189-1.328,1.991-1.794c0.801-0.466,1.681-0.801,2.637-1.004
	c0.957-0.203,1.866-0.305,2.728-0.305c0.933,0,1.602,0.174,2.009,0.521c0.406,0.347,0.682,0.807,0.825,1.381
	c0.144,0.574,0.227,1.214,0.251,1.919c0.023,0.706,0.107,1.417,0.251,2.134c0.144,0.718,0.431,1.406,0.861,2.063
	c0.431,0.658,1.124,1.214,2.081,1.668c0.837,0.383,1.674,0.574,2.511,0.574c0.67,0,1.189-0.125,1.561-0.376s0.67-0.538,0.897-0.861
	c0.227-0.323,0.424-0.622,0.592-0.897c0.167-0.275,0.395-0.449,0.682-0.521c0.144-0.047,0.353-0.083,0.628-0.107
	c0.274-0.023,0.413-0.144,0.413-0.359c0-0.144-0.061-0.292-0.18-0.448c-0.12-0.155-0.251-0.305-0.395-0.449
	s-0.275-0.299-0.395-0.466c-0.12-0.167-0.18-0.347-0.18-0.538l0.036-0.144c0.238,0.048,0.454,0.149,0.646,0.305
	c0.191,0.156,0.418,0.233,0.682,0.233l0.18-0.036l-0.072-0.18c-0.167-0.526-0.275-1.154-0.322-1.883
	c-0.049-0.729-0.144-1.429-0.287-2.099c-0.144-0.669-0.39-1.243-0.736-1.722s-0.891-0.729-1.632-0.753
	c0-0.502-0.203-0.975-0.61-1.417c-0.406-0.442-0.933-0.849-1.578-1.22c-0.646-0.371-1.363-0.7-2.152-0.987
	c-0.79-0.287-1.573-0.532-2.351-0.735c-0.777-0.203-1.507-0.359-2.188-0.466s-1.226-0.162-1.632-0.162
	c-0.742,0-1.478,0.06-2.207,0.18s-1.453,0.228-2.17,0.323c-1.029,0.144-1.933,0.395-2.709,0.753
	c-0.777,0.359-1.495,0.789-2.152,1.292c-0.658,0.502-1.292,1.071-1.902,1.704c-0.609,0.634-1.25,1.286-1.919,1.956
	c-0.574,0.574-0.957,1.196-1.148,1.865c-0.191,0.67-0.287,1.399-0.287,2.189c0,0.55,0.042,1.076,0.126,1.578
	c0.084,0.502,0.126,1.029,0.126,1.579c0,0.12-0.024,0.354-0.072,0.7c-0.048,0.347-0.107,0.706-0.18,1.076
	c-0.071,0.371-0.155,0.706-0.251,1.005c-0.096,0.299-0.179,0.484-0.251,0.556c-0.287,0.215-0.688,0.347-1.202,0.395
	c-0.515,0.048-0.95,0.072-1.31,0.072c-0.335,0-0.676-0.012-1.022-0.036c-0.347-0.023-0.688-0.036-1.022-0.036
	c-0.311,0-0.688,0.06-1.13,0.179c-0.442,0.12-0.861,0.287-1.256,0.502s-0.729,0.473-1.004,0.771
	c-0.275,0.299-0.413,0.616-0.413,0.951c0,0.479,0.162,0.879,0.484,1.202c0.323,0.323,0.735,0.586,1.238,0.79
	c0.502,0.203,1.063,0.365,1.686,0.484s1.244,0.203,1.866,0.251c0.621,0.048,1.195,0.078,1.722,0.09
	c0.526,0.012,0.956,0.018,1.292,0.018c0,0.24,0.065,0.455,0.197,0.646c0.131,0.192,0.269,0.376,0.412,0.556
	c0.144,0.179,0.274,0.371,0.395,0.574c0.12,0.204,0.18,0.449,0.18,0.736c0,0.311-0.054,0.616-0.161,0.915
	c-0.108,0.299-0.246,0.581-0.413,0.843c0.023,0.144,0.06,0.257,0.107,0.341c0.048,0.084,0.102,0.167,0.162,0.251
	c0.06,0.084,0.107,0.18,0.144,0.287c0.035,0.108,0.054,0.269,0.054,0.484c0,0.551-0.096,1.094-0.287,1.632s-0.287,1.083-0.287,1.632
	c0,0.192,0.029,0.365,0.09,0.521c0.06,0.156,0.113,0.317,0.161,0.484c0.191,0.622,0.325,1.322,0.349,2.099
	c0.023,0.778,0.062,1.501,0.062,2.17c0,0.264,0,0.616,0,1.059c0,0.443-0.039,0.903-0.062,1.382s-0.091,0.769-0.175,1.187
	c-0.084,0.419-0.21,0.793-0.354,0.793h-0.071c0.096,1,0.173,0.875,0.233,1.234c0.06,0.358,0.09,0.797,0.09,1.155
	c0,0.861-0.168,1.577-0.503,2.067s-0.771,0.875-1.31,1.113c-0.538,0.239-1.154,0.399-1.848,0.458
	c-0.693,0.061-1.405,0.107-2.135,0.131c-0.729,0.024-1.44,0.062-2.134,0.109c-0.694,0.049-1.31,0.176-1.848,0.379
	c-0.539,0.203-0.976,0.515-1.31,0.933c-0.336,0.419-0.503,1.023-0.503,1.812l0.036,1.65
	C503.323,118.234,503.593,118.42,503.916,118.6z"/>
<path fill="#5690D6" d="M540.994,81.341c-0.358,0.263-0.795,0.46-1.31,0.592c-0.515,0.132-1.011,0.287-1.488,0.466
	c-0.479,0.18-0.892,0.419-1.238,0.718c-0.347,0.299-0.521,0.735-0.521,1.31c0,0.383,0.113,0.676,0.341,0.879
	s0.509,0.365,0.844,0.484c0.478,0.144,0.861,0.425,1.147,0.843c0.287,0.419,0.61,0.795,0.969,1.13
	c0.431,0.407,0.957,0.658,1.579,0.753c0.621,0.096,1.268,0.174,1.938,0.233c0.669,0.06,1.339,0.156,2.009,0.287
	c0.669,0.132,1.279,0.425,1.83,0.879c0.023,0.192,0.041,0.389,0.054,0.592c0.012,0.204,0.018,0.413,0.018,0.628
	c0,1.028-0.132,2.069-0.395,3.121c-0.071,0.264-0.191,0.52-0.358,0.771c-0.168,0.251-0.252,0.508-0.252,0.771
	c0,0.192,0.066,0.383,0.198,0.574c0.131,0.192,0.197,0.431,0.197,0.718c0,0.215-0.055,0.407-0.162,0.574
	c-0.107,0.168-0.233,0.359-0.376,0.574c-0.144,0.215-0.27,0.466-0.377,0.753s-0.162,0.646-0.162,1.076
	c0,0.359-0.018,0.813-0.054,1.363c-0.035,0.551-0.071,1.113-0.107,1.688c-0.036,0.573-0.071,1.129-0.107,1.667
	c-0.036,0.539-0.054,0.987-0.054,1.346c0,0.312,0.071,0.61,0.215,0.897s0.299,0.568,0.467,0.843
	c0.167,0.275,0.322,0.557,0.466,0.843c0.144,0.287,0.216,0.599,0.216,0.934c0,0.43,0.029,0.873,0.09,1.327
	c0.06,0.454,0.179,0.867,0.358,1.237c0.18,0.371,0.431,0.677,0.754,0.915c0.322,0.239,0.759,0.359,1.31,0.359
	c0.143,0,0.256,0.197,0.341,0.592c0.083,0.395,0.161,0.837,0.232,1.327c0.072,0.49,0.149,0.933,0.233,1.327
	c0.084,0.396,0.197,0.593,0.341,0.593c0.431,0,0.777,0.089,1.041,0.269c0.263,0.18,0.502,0.406,0.717,0.682
	c0.216,0.274,0.442,0.568,0.682,0.879s0.538,0.598,0.897,0.861c0.956-0.12,2.003-0.203,3.139-0.251
	c1.136-0.049,2.29-0.132,3.463-0.251c1.171-0.12,2.313-0.294,3.426-0.521c1.112-0.228,2.122-0.574,3.031-1.041
	c0.909-0.466,1.687-1.094,2.332-1.883c0.646-0.789,1.077-1.782,1.292-2.979c0.119-0.717,0.293-1.417,0.521-2.099
	c0.227-0.682,0.448-1.351,0.663-2.009c0.216-0.657,0.406-1.327,0.574-2.009c0.167-0.682,0.251-1.405,0.251-2.171
	c0-0.454-0.035-0.896-0.107-1.328c-0.383-0.262-0.795-0.478-1.237-0.645c-0.443-0.168-0.903-0.252-1.382-0.252
	c-0.693,0-1.345,0.186-1.955,0.557s-1.13,0.831-1.561,1.381c-0.264,0.12-0.532,0.257-0.808,0.413
	c-0.275,0.155-0.538,0.335-0.789,0.537c-0.251,0.204-0.454,0.432-0.61,0.683c-0.155,0.251-0.232,0.544-0.232,0.879
	c0,0.479,0.119,0.927,0.358,1.345c0.239,0.419,0.358,0.832,0.358,1.238c0,0.479-0.215,0.879-0.646,1.202
	c-0.431,0.322-0.945,0.586-1.543,0.789s-1.196,0.353-1.793,0.448c-0.599,0.096-1.077,0.144-1.436,0.144
	c-1.053,0-1.848-0.27-2.386-0.808s-0.957-1.201-1.256-1.991c-0.299-0.789-0.544-1.626-0.735-2.511s-0.443-1.674-0.754-2.368
	c-0.239-0.479-0.376-1.064-0.412-1.758s-0.054-1.615-0.054-2.763c0-1.22-0.078-2.416-0.233-3.587s-0.233-2.368-0.233-3.588
	c0-1.243,0.186-2.278,0.557-3.104c0.37-0.825,0.896-1.489,1.578-1.991c0.682-0.502,1.489-0.861,2.422-1.076s1.974-0.323,3.121-0.323
	c0.693,0,1.387,0.024,2.081,0.072c0.693,0.048,1.387,0.072,2.081,0.072c0.431,0,0.896-0.018,1.399-0.054
	c0.502-0.036,0.974-0.138,1.417-0.305c0.442-0.167,0.812-0.418,1.112-0.753c0.299-0.334,0.448-0.79,0.448-1.363
	c0-0.454-0.138-0.759-0.413-0.915c-0.274-0.155-0.604-0.257-0.986-0.305c-0.311-0.024-0.562-0.095-0.753-0.215
	c-0.192-0.12-0.401-0.233-0.628-0.341c-0.228-0.108-0.509-0.209-0.844-0.305c-0.335-0.095-0.813-0.144-1.435-0.144
	c-0.694,0-1.567-0.023-2.619-0.072c-1.053-0.047-2.093-0.113-3.121-0.197c-1.029-0.083-1.962-0.191-2.799-0.323
	c-0.837-0.131-1.376-0.281-1.614-0.448c0-0.359-0.084-0.676-0.251-0.951c-0.168-0.274-0.354-0.543-0.557-0.807
	c-0.203-0.263-0.383-0.532-0.538-0.807c-0.155-0.275-0.233-0.58-0.233-0.915c0-0.454,0.09-0.891,0.27-1.31
	c0.18-0.418,0.27-0.854,0.27-1.309c0-0.526-0.097-1.16-0.287-1.902c-0.192-0.741-0.287-1.494-0.287-2.26
	c0-0.358,0.005-0.651,0.018-0.879c0.012-0.227,0.018-0.436,0.018-0.628c0-0.334-0.077-0.627-0.232-0.879
	c-0.156-0.251-0.497-0.64-1.022-1.166c-0.12-0.095-0.233-0.173-0.341-0.233c-0.108-0.06-0.233-0.09-0.377-0.09
	c-0.216,0-0.425,0.06-0.628,0.179c-0.203,0.12-0.4,0.269-0.592,0.449c-0.192,0.179-0.371,0.365-0.538,0.556
	c-0.168,0.191-0.323,0.347-0.467,0.466c-0.67,0.622-1.124,1.304-1.363,2.045c-0.239,0.742-0.358,1.555-0.358,2.439
	c0,0.766,0.047,1.507,0.144,2.225c0.095,0.717,0.144,1.459,0.144,2.224c0,0.526-0.042,1.017-0.126,1.471
	c-0.084,0.455-0.239,0.855-0.467,1.202c-0.228,0.347-0.538,0.623-0.933,0.825c-0.395,0.204-0.891,0.305-1.488,0.305
	c-0.216,0-0.426-0.006-0.628-0.018c-0.204-0.012-0.413-0.018-0.628-0.018C541.783,80.946,541.354,81.078,540.994,81.341z"/>
</svg>
